# Tiled2Unity generated file. Do not modify by hand.
# Wavefront file for 'map2_mesh_0003.obj'

# Vertices (Count = 720)
v -1728 -96 -0.075
v -1760 -96 -0.075
v -1760 -64 -0.075
v -1728 -64 -0.075
v -1760 -96 -0.075
v -1792 -96 -0.075
v -1792 -64 -0.075
v -1760 -64 -0.075
v -1792 -96 -0.075
v -1824 -96 -0.075
v -1824 -64 -0.075
v -1792 -64 -0.075
v -1824 -96 -0.075
v -1856 -96 -0.075
v -1856 -64 -0.075
v -1824 -64 -0.075
v -1856 -96 -0.075
v -1888 -96 -0.075
v -1888 -64 -0.075
v -1856 -64 -0.075
v -1888 -96 -0.075
v -1920 -96 -0.075
v -1920 -64 -0.075
v -1888 -64 -0.075
v -1728 -128 -0.1
v -1760 -128 -0.1
v -1760 -96 -0.1
v -1728 -96 -0.1
v -1760 -128 -0.1
v -1792 -128 -0.1
v -1792 -96 -0.1
v -1760 -96 -0.1
v -1792 -128 -0.1
v -1824 -128 -0.1
v -1824 -96 -0.1
v -1792 -96 -0.1
v -1824 -128 -0.1
v -1856 -128 -0.1
v -1856 -96 -0.1
v -1824 -96 -0.1
v -1856 -128 -0.1
v -1888 -128 -0.1
v -1888 -96 -0.1
v -1856 -96 -0.1
v -1888 -128 -0.1
v -1920 -128 -0.1
v -1920 -96 -0.1
v -1888 -96 -0.1
v -1728 -160 -0.125
v -1760 -160 -0.125
v -1760 -128 -0.125
v -1728 -128 -0.125
v -1760 -160 -0.125
v -1792 -160 -0.125
v -1792 -128 -0.125
v -1760 -128 -0.125
v -1792 -160 -0.125
v -1824 -160 -0.125
v -1824 -128 -0.125
v -1792 -128 -0.125
v -1824 -160 -0.125
v -1856 -160 -0.125
v -1856 -128 -0.125
v -1824 -128 -0.125
v -1856 -160 -0.125
v -1888 -160 -0.125
v -1888 -128 -0.125
v -1856 -128 -0.125
v -1888 -160 -0.125
v -1920 -160 -0.125
v -1920 -128 -0.125
v -1888 -128 -0.125
v -1728 -192 -0.15
v -1760 -192 -0.15
v -1760 -160 -0.15
v -1728 -160 -0.15
v -1760 -192 -0.15
v -1792 -192 -0.15
v -1792 -160 -0.15
v -1760 -160 -0.15
v -1792 -192 -0.15
v -1824 -192 -0.15
v -1824 -160 -0.15
v -1792 -160 -0.15
v -1824 -192 -0.15
v -1856 -192 -0.15
v -1856 -160 -0.15
v -1824 -160 -0.15
v -1856 -192 -0.15
v -1888 -192 -0.15
v -1888 -160 -0.15
v -1856 -160 -0.15
v -1888 -192 -0.15
v -1920 -192 -0.15
v -1920 -160 -0.15
v -1888 -160 -0.15
v -1728 -256 -0.2
v -1760 -256 -0.2
v -1760 -224 -0.2
v -1728 -224 -0.2
v -1760 -256 -0.2
v -1792 -256 -0.2
v -1792 -224 -0.2
v -1760 -224 -0.2
v -1792 -256 -0.2
v -1824 -256 -0.2
v -1824 -224 -0.2
v -1792 -224 -0.2
v -1824 -256 -0.2
v -1856 -256 -0.2
v -1856 -224 -0.2
v -1824 -224 -0.2
v -1856 -256 -0.2
v -1888 -256 -0.2
v -1888 -224 -0.2
v -1856 -224 -0.2
v -1888 -256 -0.2
v -1920 -256 -0.2
v -1920 -224 -0.2
v -1888 -224 -0.2
v -1728 -288 -0.225
v -1760 -288 -0.225
v -1760 -256 -0.225
v -1728 -256 -0.225
v -1760 -288 -0.225
v -1792 -288 -0.225
v -1792 -256 -0.225
v -1760 -256 -0.225
v -1792 -288 -0.225
v -1824 -288 -0.225
v -1824 -256 -0.225
v -1792 -256 -0.225
v -1824 -288 -0.225
v -1856 -288 -0.225
v -1856 -256 -0.225
v -1824 -256 -0.225
v -1856 -288 -0.225
v -1888 -288 -0.225
v -1888 -256 -0.225
v -1856 -256 -0.225
v -1888 -288 -0.225
v -1920 -288 -0.225
v -1920 -256 -0.225
v -1888 -256 -0.225
v -1728 -320 -0.25
v -1760 -320 -0.25
v -1760 -288 -0.25
v -1728 -288 -0.25
v -1760 -320 -0.25
v -1792 -320 -0.25
v -1792 -288 -0.25
v -1760 -288 -0.25
v -1792 -320 -0.25
v -1824 -320 -0.25
v -1824 -288 -0.25
v -1792 -288 -0.25
v -1824 -320 -0.25
v -1856 -320 -0.25
v -1856 -288 -0.25
v -1824 -288 -0.25
v -1856 -320 -0.25
v -1888 -320 -0.25
v -1888 -288 -0.25
v -1856 -288 -0.25
v -1888 -320 -0.25
v -1920 -320 -0.25
v -1920 -288 -0.25
v -1888 -288 -0.25
v -1728 -352 -0.275
v -1760 -352 -0.275
v -1760 -320 -0.275
v -1728 -320 -0.275
v -1760 -352 -0.275
v -1792 -352 -0.275
v -1792 -320 -0.275
v -1760 -320 -0.275
v -1792 -352 -0.275
v -1824 -352 -0.275
v -1824 -320 -0.275
v -1792 -320 -0.275
v -1824 -352 -0.275
v -1856 -352 -0.275
v -1856 -320 -0.275
v -1824 -320 -0.275
v -1856 -352 -0.275
v -1888 -352 -0.275
v -1888 -320 -0.275
v -1856 -320 -0.275
v -1888 -352 -0.275
v -1920 -352 -0.275
v -1920 -320 -0.275
v -1888 -320 -0.275
v -1728 -640 -0.5
v -1760 -640 -0.5
v -1760 -608 -0.5
v -1728 -608 -0.5
v -1760 -640 -0.5
v -1792 -640 -0.5
v -1792 -608 -0.5
v -1760 -608 -0.5
v -1792 -640 -0.5
v -1824 -640 -0.5
v -1824 -608 -0.5
v -1792 -608 -0.5
v -1824 -640 -0.5
v -1856 -640 -0.5
v -1856 -608 -0.5
v -1824 -608 -0.5
v -1856 -640 -0.5
v -1888 -640 -0.5
v -1888 -608 -0.5
v -1856 -608 -0.5
v -1888 -640 -0.5
v -1920 -640 -0.5
v -1920 -608 -0.5
v -1888 -608 -0.5
v -1728 -672 -0.525
v -1760 -672 -0.525
v -1760 -640 -0.525
v -1728 -640 -0.525
v -1760 -672 -0.525
v -1792 -672 -0.525
v -1792 -640 -0.525
v -1760 -640 -0.525
v -1792 -672 -0.525
v -1824 -672 -0.525
v -1824 -640 -0.525
v -1792 -640 -0.525
v -1824 -672 -0.525
v -1856 -672 -0.525
v -1856 -640 -0.525
v -1824 -640 -0.525
v -1856 -672 -0.525
v -1888 -672 -0.525
v -1888 -640 -0.525
v -1856 -640 -0.525
v -1888 -672 -0.525
v -1920 -672 -0.525
v -1920 -640 -0.525
v -1888 -640 -0.525
v -1728 -704 -0.55
v -1760 -704 -0.55
v -1760 -672 -0.55
v -1728 -672 -0.55
v -1760 -704 -0.55
v -1792 -704 -0.55
v -1792 -672 -0.55
v -1760 -672 -0.55
v -1792 -704 -0.55
v -1824 -704 -0.55
v -1824 -672 -0.55
v -1792 -672 -0.55
v -1824 -704 -0.55
v -1856 -704 -0.55
v -1856 -672 -0.55
v -1824 -672 -0.55
v -1856 -704 -0.55
v -1888 -704 -0.55
v -1888 -672 -0.55
v -1856 -672 -0.55
v -1888 -704 -0.55
v -1920 -704 -0.55
v -1920 -672 -0.55
v -1888 -672 -0.55
v -1728 -736 -0.575
v -1760 -736 -0.575
v -1760 -704 -0.575
v -1728 -704 -0.575
v -1760 -736 -0.575
v -1792 -736 -0.575
v -1792 -704 -0.575
v -1760 -704 -0.575
v -1792 -736 -0.575
v -1824 -736 -0.575
v -1824 -704 -0.575
v -1792 -704 -0.575
v -1824 -736 -0.575
v -1856 -736 -0.575
v -1856 -704 -0.575
v -1824 -704 -0.575
v -1856 -736 -0.575
v -1888 -736 -0.575
v -1888 -704 -0.575
v -1856 -704 -0.575
v -1888 -736 -0.575
v -1920 -736 -0.575
v -1920 -704 -0.575
v -1888 -704 -0.575
v -1728 -800 -0.625
v -1760 -800 -0.625
v -1760 -768 -0.625
v -1728 -768 -0.625
v -1760 -800 -0.625
v -1792 -800 -0.625
v -1792 -768 -0.625
v -1760 -768 -0.625
v -1792 -800 -0.625
v -1824 -800 -0.625
v -1824 -768 -0.625
v -1792 -768 -0.625
v -1824 -800 -0.625
v -1856 -800 -0.625
v -1856 -768 -0.625
v -1824 -768 -0.625
v -1856 -800 -0.625
v -1888 -800 -0.625
v -1888 -768 -0.625
v -1856 -768 -0.625
v -1888 -800 -0.625
v -1920 -800 -0.625
v -1920 -768 -0.625
v -1888 -768 -0.625
v -1728 -832 -0.65
v -1760 -832 -0.65
v -1760 -800 -0.65
v -1728 -800 -0.65
v -1760 -832 -0.65
v -1792 -832 -0.65
v -1792 -800 -0.65
v -1760 -800 -0.65
v -1792 -832 -0.65
v -1824 -832 -0.65
v -1824 -800 -0.65
v -1792 -800 -0.65
v -1824 -832 -0.65
v -1856 -832 -0.65
v -1856 -800 -0.65
v -1824 -800 -0.65
v -1856 -832 -0.65
v -1888 -832 -0.65
v -1888 -800 -0.65
v -1856 -800 -0.65
v -1888 -832 -0.65
v -1920 -832 -0.65
v -1920 -800 -0.65
v -1888 -800 -0.65
v -1728 -864 -0.675
v -1760 -864 -0.675
v -1760 -832 -0.675
v -1728 -832 -0.675
v -1760 -864 -0.675
v -1792 -864 -0.675
v -1792 -832 -0.675
v -1760 -832 -0.675
v -1792 -864 -0.675
v -1824 -864 -0.675
v -1824 -832 -0.675
v -1792 -832 -0.675
v -1824 -864 -0.675
v -1856 -864 -0.675
v -1856 -832 -0.675
v -1824 -832 -0.675
v -1856 -864 -0.675
v -1888 -864 -0.675
v -1888 -832 -0.675
v -1856 -832 -0.675
v -1888 -864 -0.675
v -1920 -864 -0.675
v -1920 -832 -0.675
v -1888 -832 -0.675
v -1728 -896 -0.7
v -1760 -896 -0.7
v -1760 -864 -0.7
v -1728 -864 -0.7
v -1760 -896 -0.7
v -1792 -896 -0.7
v -1792 -864 -0.7
v -1760 -864 -0.7
v -1792 -896 -0.7
v -1824 -896 -0.7
v -1824 -864 -0.7
v -1792 -864 -0.7
v -1824 -896 -0.7
v -1856 -896 -0.7
v -1856 -864 -0.7
v -1824 -864 -0.7
v -1856 -896 -0.7
v -1888 -896 -0.7
v -1888 -864 -0.7
v -1856 -864 -0.7
v -1888 -896 -0.7
v -1920 -896 -0.7
v -1920 -864 -0.7
v -1888 -864 -0.7
v -1120 -1056 -0.825
v -1152 -1056 -0.825
v -1152 -1024 -0.825
v -1120 -1024 -0.825
v -1152 -1056 -0.825
v -1184 -1056 -0.825
v -1184 -1024 -0.825
v -1152 -1024 -0.825
v -1184 -1056 -0.825
v -1216 -1056 -0.825
v -1216 -1024 -0.825
v -1184 -1024 -0.825
v -1216 -1056 -0.825
v -1248 -1056 -0.825
v -1248 -1024 -0.825
v -1216 -1024 -0.825
v -1248 -1056 -0.825
v -1280 -1056 -0.825
v -1280 -1024 -0.825
v -1248 -1024 -0.825
v -1280 -1056 -0.825
v -1312 -1056 -0.825
v -1312 -1024 -0.825
v -1280 -1024 -0.825
v -1312 -1056 -0.825
v -1344 -1056 -0.825
v -1344 -1024 -0.825
v -1312 -1024 -0.825
v -1344 -1056 -0.825
v -1376 -1056 -0.825
v -1376 -1024 -0.825
v -1344 -1024 -0.825
v -1376 -1056 -0.825
v -1408 -1056 -0.825
v -1408 -1024 -0.825
v -1376 -1024 -0.825
v -1408 -1056 -0.825
v -1440 -1056 -0.825
v -1440 -1024 -0.825
v -1408 -1024 -0.825
v -1440 -1056 -0.825
v -1472 -1056 -0.825
v -1472 -1024 -0.825
v -1440 -1024 -0.825
v -1472 -1056 -0.825
v -1504 -1056 -0.825
v -1504 -1024 -0.825
v -1472 -1024 -0.825
v -1504 -1056 -0.825
v -1536 -1056 -0.825
v -1536 -1024 -0.825
v -1504 -1024 -0.825
v -1536 -1056 -0.825
v -1568 -1056 -0.825
v -1568 -1024 -0.825
v -1536 -1024 -0.825
v -32 -1088 -0.85
v -64 -1088 -0.85
v -64 -1056 -0.85
v -32 -1056 -0.85
v -64 -1088 -0.85
v -96 -1088 -0.85
v -96 -1056 -0.85
v -64 -1056 -0.85
v -96 -1088 -0.85
v -128 -1088 -0.85
v -128 -1056 -0.85
v -96 -1056 -0.85
v -128 -1088 -0.85
v -160 -1088 -0.85
v -160 -1056 -0.85
v -128 -1056 -0.85
v -1120 -1088 -0.85
v -1152 -1088 -0.85
v -1152 -1056 -0.85
v -1120 -1056 -0.85
v -1152 -1088 -0.85
v -1184 -1088 -0.85
v -1184 -1056 -0.85
v -1152 -1056 -0.85
v -1184 -1088 -0.85
v -1216 -1088 -0.85
v -1216 -1056 -0.85
v -1184 -1056 -0.85
v -1216 -1088 -0.85
v -1248 -1088 -0.85
v -1248 -1056 -0.85
v -1216 -1056 -0.85
v -1248 -1088 -0.85
v -1280 -1088 -0.85
v -1280 -1056 -0.85
v -1248 -1056 -0.85
v -1280 -1088 -0.85
v -1312 -1088 -0.85
v -1312 -1056 -0.85
v -1280 -1056 -0.85
v -1312 -1088 -0.85
v -1344 -1088 -0.85
v -1344 -1056 -0.85
v -1312 -1056 -0.85
v -1344 -1088 -0.85
v -1376 -1088 -0.85
v -1376 -1056 -0.85
v -1344 -1056 -0.85
v -1376 -1088 -0.85
v -1408 -1088 -0.85
v -1408 -1056 -0.85
v -1376 -1056 -0.85
v -1408 -1088 -0.85
v -1440 -1088 -0.85
v -1440 -1056 -0.85
v -1408 -1056 -0.85
v -1440 -1088 -0.85
v -1472 -1088 -0.85
v -1472 -1056 -0.85
v -1440 -1056 -0.85
v -1472 -1088 -0.85
v -1504 -1088 -0.85
v -1504 -1056 -0.85
v -1472 -1056 -0.85
v -1504 -1088 -0.85
v -1536 -1088 -0.85
v -1536 -1056 -0.85
v -1504 -1056 -0.85
v -1536 -1088 -0.85
v -1568 -1088 -0.85
v -1568 -1056 -0.85
v -1536 -1056 -0.85
v -32 -1120 -0.875
v -64 -1120 -0.875
v -64 -1088 -0.875
v -32 -1088 -0.875
v -64 -1120 -0.875
v -96 -1120 -0.875
v -96 -1088 -0.875
v -64 -1088 -0.875
v -96 -1120 -0.875
v -128 -1120 -0.875
v -128 -1088 -0.875
v -96 -1088 -0.875
v -128 -1120 -0.875
v -160 -1120 -0.875
v -160 -1088 -0.875
v -128 -1088 -0.875
v -1120 -1120 -0.875
v -1152 -1120 -0.875
v -1152 -1088 -0.875
v -1120 -1088 -0.875
v -1152 -1120 -0.875
v -1184 -1120 -0.875
v -1184 -1088 -0.875
v -1152 -1088 -0.875
v -1184 -1120 -0.875
v -1216 -1120 -0.875
v -1216 -1088 -0.875
v -1184 -1088 -0.875
v -1216 -1120 -0.875
v -1248 -1120 -0.875
v -1248 -1088 -0.875
v -1216 -1088 -0.875
v -1248 -1120 -0.875
v -1280 -1120 -0.875
v -1280 -1088 -0.875
v -1248 -1088 -0.875
v -1280 -1120 -0.875
v -1312 -1120 -0.875
v -1312 -1088 -0.875
v -1280 -1088 -0.875
v -1312 -1120 -0.875
v -1344 -1120 -0.875
v -1344 -1088 -0.875
v -1312 -1088 -0.875
v -1344 -1120 -0.875
v -1376 -1120 -0.875
v -1376 -1088 -0.875
v -1344 -1088 -0.875
v -1376 -1120 -0.875
v -1408 -1120 -0.875
v -1408 -1088 -0.875
v -1376 -1088 -0.875
v -1408 -1120 -0.875
v -1440 -1120 -0.875
v -1440 -1088 -0.875
v -1408 -1088 -0.875
v -1440 -1120 -0.875
v -1472 -1120 -0.875
v -1472 -1088 -0.875
v -1440 -1088 -0.875
v -1472 -1120 -0.875
v -1504 -1120 -0.875
v -1504 -1088 -0.875
v -1472 -1088 -0.875
v -1504 -1120 -0.875
v -1536 -1120 -0.875
v -1536 -1088 -0.875
v -1504 -1088 -0.875
v -1536 -1120 -0.875
v -1568 -1120 -0.875
v -1568 -1088 -0.875
v -1536 -1088 -0.875
v -32 -1152 -0.9
v -64 -1152 -0.9
v -64 -1120 -0.9
v -32 -1120 -0.9
v -64 -1152 -0.9
v -96 -1152 -0.9
v -96 -1120 -0.9
v -64 -1120 -0.9
v -96 -1152 -0.9
v -128 -1152 -0.9
v -128 -1120 -0.9
v -96 -1120 -0.9
v -128 -1152 -0.9
v -160 -1152 -0.9
v -160 -1120 -0.9
v -128 -1120 -0.9
v -1120 -1152 -0.9
v -1152 -1152 -0.9
v -1152 -1120 -0.9
v -1120 -1120 -0.9
v -1152 -1152 -0.9
v -1184 -1152 -0.9
v -1184 -1120 -0.9
v -1152 -1120 -0.9
v -1184 -1152 -0.9
v -1216 -1152 -0.9
v -1216 -1120 -0.9
v -1184 -1120 -0.9
v -1216 -1152 -0.9
v -1248 -1152 -0.9
v -1248 -1120 -0.9
v -1216 -1120 -0.9
v -1248 -1152 -0.9
v -1280 -1152 -0.9
v -1280 -1120 -0.9
v -1248 -1120 -0.9
v -1280 -1152 -0.9
v -1312 -1152 -0.9
v -1312 -1120 -0.9
v -1280 -1120 -0.9
v -1312 -1152 -0.9
v -1344 -1152 -0.9
v -1344 -1120 -0.9
v -1312 -1120 -0.9
v -1344 -1152 -0.9
v -1376 -1152 -0.9
v -1376 -1120 -0.9
v -1344 -1120 -0.9
v -1376 -1152 -0.9
v -1408 -1152 -0.9
v -1408 -1120 -0.9
v -1376 -1120 -0.9
v -1408 -1152 -0.9
v -1440 -1152 -0.9
v -1440 -1120 -0.9
v -1408 -1120 -0.9
v -1440 -1152 -0.9
v -1472 -1152 -0.9
v -1472 -1120 -0.9
v -1440 -1120 -0.9
v -1472 -1152 -0.9
v -1504 -1152 -0.9
v -1504 -1120 -0.9
v -1472 -1120 -0.9
v -1504 -1152 -0.9
v -1536 -1152 -0.9
v -1536 -1120 -0.9
v -1504 -1120 -0.9
v -1536 -1152 -0.9
v -1568 -1152 -0.9
v -1568 -1120 -0.9
v -1536 -1120 -0.9
v -32 -1184 -0.925
v -64 -1184 -0.925
v -64 -1152 -0.925
v -32 -1152 -0.925
v -64 -1184 -0.925
v -96 -1184 -0.925
v -96 -1152 -0.925
v -64 -1152 -0.925
v -96 -1184 -0.925
v -128 -1184 -0.925
v -128 -1152 -0.925
v -96 -1152 -0.925
v -128 -1184 -0.925
v -160 -1184 -0.925
v -160 -1152 -0.925
v -128 -1152 -0.925
v -32 -1216 -0.95
v -64 -1216 -0.95
v -64 -1184 -0.95
v -32 -1184 -0.95
v -64 -1216 -0.95
v -96 -1216 -0.95
v -96 -1184 -0.95
v -64 -1184 -0.95
v -96 -1216 -0.95
v -128 -1216 -0.95
v -128 -1184 -0.95
v -96 -1184 -0.95
v -128 -1216 -0.95
v -160 -1216 -0.95
v -160 -1184 -0.95
v -128 -1184 -0.95
v -32 -1248 -0.975
v -64 -1248 -0.975
v -64 -1216 -0.975
v -32 -1216 -0.975
v -64 -1248 -0.975
v -96 -1248 -0.975
v -96 -1216 -0.975
v -64 -1216 -0.975
v -96 -1248 -0.975
v -128 -1248 -0.975
v -128 -1216 -0.975
v -96 -1216 -0.975
v -128 -1248 -0.975
v -160 -1248 -0.975
v -160 -1216 -0.975
v -128 -1216 -0.975
v -32 -1280 -1
v -64 -1280 -1
v -64 -1248 -1
v -32 -1248 -1
v -64 -1280 -1
v -96 -1280 -1
v -96 -1248 -1
v -64 -1248 -1
v -96 -1280 -1
v -128 -1280 -1
v -128 -1248 -1
v -96 -1248 -1
v -128 -1280 -1
v -160 -1280 -1
v -160 -1248 -1
v -128 -1248 -1

# Texture cooridinates (Count = 80)
vt 0.6666667 0.9583333
vt 0.7083333 0.9583333
vt 0.7083333 1
vt 0.6666667 1
vt 0.75 0.9583333
vt 0.75 1
vt 0.7916667 0.9583333
vt 0.7916667 1
vt 0.8333333 0.9583333
vt 0.8333333 1
vt 0.875 0.9583333
vt 0.875 1
vt 0.9166667 0.9583333
vt 0.9166667 1
vt 0.6666667 0.9166667
vt 0.7083333 0.9166667
vt 0.75 0.9166667
vt 0.7916667 0.9166667
vt 0.8333333 0.9166667
vt 0.875 0.9166667
vt 0.9166667 0.9166667
vt 0.6666667 0.875
vt 0.7083333 0.875
vt 0.75 0.875
vt 0.7916667 0.875
vt 0.8333333 0.875
vt 0.875 0.875
vt 0.9166667 0.875
vt 0.6666667 0.8333333
vt 0.7083333 0.8333333
vt 0.75 0.8333333
vt 0.7916667 0.8333333
vt 0.8333333 0.8333333
vt 0.875 0.8333333
vt 0.9166667 0.8333333
vt 0.9583333 0.9583333
vt 0.9583333 1
vt 1 0.9583333
vt 1 1
vt 0.5 0.9583333
vt 0.5416667 0.9583333
vt 0.5416667 1
vt 0.5 1
vt 0.5833333 0.9583333
vt 0.5833333 1
vt 0.625 0.9583333
vt 0.625 1
vt 0.9583333 0.9166667
vt 1 0.9166667
vt 0.5 0.9166667
vt 0.5416667 0.9166667
vt 0.5833333 0.9166667
vt 0.625 0.9166667
vt 0.9583333 0.875
vt 1 0.875
vt 0.5 0.875
vt 0.5416667 0.875
vt 0.5833333 0.875
vt 0.625 0.875
vt 0.9583333 0.8333333
vt 1 0.8333333
vt 0.5 0.8333333
vt 0.5416667 0.8333333
vt 0.5833333 0.8333333
vt 0.625 0.8333333
vt 0.5 0.7916667
vt 0.5416667 0.7916667
vt 0.5833333 0.7916667
vt 0.625 0.7916667
vt 0.6666667 0.7916667
vt 0.5 0.75
vt 0.5416667 0.75
vt 0.5833333 0.75
vt 0.625 0.75
vt 0.6666667 0.75
vt 0.5 0.7083334
vt 0.5416667 0.7083334
vt 0.5833333 0.7083334
vt 0.625 0.7083334
vt 0.6666667 0.7083334

# Normal
vn 0 0 -1

# Mesh description
g map2_mesh_0003

# Faces
f 1/1/1 2/2/1 3/3/1 4/4/1
f 5/2/1 6/5/1 7/6/1 8/3/1
f 9/5/1 10/7/1 11/8/1 12/6/1
f 13/7/1 14/9/1 15/10/1 16/8/1
f 17/9/1 18/11/1 19/12/1 20/10/1
f 21/11/1 22/13/1 23/14/1 24/12/1
f 25/15/1 26/16/1 27/2/1 28/1/1
f 29/16/1 30/17/1 31/5/1 32/2/1
f 33/17/1 34/18/1 35/7/1 36/5/1
f 37/18/1 38/19/1 39/9/1 40/7/1
f 41/19/1 42/20/1 43/11/1 44/9/1
f 45/20/1 46/21/1 47/13/1 48/11/1
f 49/22/1 50/23/1 51/16/1 52/15/1
f 53/23/1 54/24/1 55/17/1 56/16/1
f 57/24/1 58/25/1 59/18/1 60/17/1
f 61/25/1 62/26/1 63/19/1 64/18/1
f 65/26/1 66/27/1 67/20/1 68/19/1
f 69/27/1 70/28/1 71/21/1 72/20/1
f 73/29/1 74/30/1 75/23/1 76/22/1
f 77/30/1 78/31/1 79/24/1 80/23/1
f 81/31/1 82/32/1 83/25/1 84/24/1
f 85/32/1 86/33/1 87/26/1 88/25/1
f 89/33/1 90/34/1 91/27/1 92/26/1
f 93/34/1 94/35/1 95/28/1 96/27/1
f 97/1/1 98/2/1 99/3/1 100/4/1
f 101/2/1 102/5/1 103/6/1 104/3/1
f 105/5/1 106/7/1 107/8/1 108/6/1
f 109/7/1 110/9/1 111/10/1 112/8/1
f 113/9/1 114/11/1 115/12/1 116/10/1
f 117/11/1 118/13/1 119/14/1 120/12/1
f 121/15/1 122/16/1 123/2/1 124/1/1
f 125/16/1 126/17/1 127/5/1 128/2/1
f 129/17/1 130/18/1 131/7/1 132/5/1
f 133/18/1 134/19/1 135/9/1 136/7/1
f 137/19/1 138/20/1 139/11/1 140/9/1
f 141/20/1 142/21/1 143/13/1 144/11/1
f 145/22/1 146/23/1 147/16/1 148/15/1
f 149/23/1 150/24/1 151/17/1 152/16/1
f 153/24/1 154/25/1 155/18/1 156/17/1
f 157/25/1 158/26/1 159/19/1 160/18/1
f 161/26/1 162/27/1 163/20/1 164/19/1
f 165/27/1 166/28/1 167/21/1 168/20/1
f 169/29/1 170/30/1 171/23/1 172/22/1
f 173/30/1 174/31/1 175/24/1 176/23/1
f 177/31/1 178/32/1 179/25/1 180/24/1
f 181/32/1 182/33/1 183/26/1 184/25/1
f 185/33/1 186/34/1 187/27/1 188/26/1
f 189/34/1 190/35/1 191/28/1 192/27/1
f 193/1/1 194/2/1 195/3/1 196/4/1
f 197/2/1 198/5/1 199/6/1 200/3/1
f 201/5/1 202/7/1 203/8/1 204/6/1
f 205/7/1 206/9/1 207/10/1 208/8/1
f 209/9/1 210/11/1 211/12/1 212/10/1
f 213/11/1 214/13/1 215/14/1 216/12/1
f 217/15/1 218/16/1 219/2/1 220/1/1
f 221/16/1 222/17/1 223/5/1 224/2/1
f 225/17/1 226/18/1 227/7/1 228/5/1
f 229/18/1 230/19/1 231/9/1 232/7/1
f 233/19/1 234/20/1 235/11/1 236/9/1
f 237/20/1 238/21/1 239/13/1 240/11/1
f 241/22/1 242/23/1 243/16/1 244/15/1
f 245/23/1 246/24/1 247/17/1 248/16/1
f 249/24/1 250/25/1 251/18/1 252/17/1
f 253/25/1 254/26/1 255/19/1 256/18/1
f 257/26/1 258/27/1 259/20/1 260/19/1
f 261/27/1 262/28/1 263/21/1 264/20/1
f 265/29/1 266/30/1 267/23/1 268/22/1
f 269/30/1 270/31/1 271/24/1 272/23/1
f 273/31/1 274/32/1 275/25/1 276/24/1
f 277/32/1 278/33/1 279/26/1 280/25/1
f 281/33/1 282/34/1 283/27/1 284/26/1
f 285/34/1 286/35/1 287/28/1 288/27/1
f 289/1/1 290/2/1 291/3/1 292/4/1
f 293/2/1 294/5/1 295/6/1 296/3/1
f 297/5/1 298/7/1 299/8/1 300/6/1
f 301/7/1 302/9/1 303/10/1 304/8/1
f 305/9/1 306/11/1 307/12/1 308/10/1
f 309/11/1 310/13/1 311/14/1 312/12/1
f 313/15/1 314/16/1 315/2/1 316/1/1
f 317/16/1 318/17/1 319/5/1 320/2/1
f 321/17/1 322/18/1 323/7/1 324/5/1
f 325/18/1 326/19/1 327/9/1 328/7/1
f 329/19/1 330/20/1 331/11/1 332/9/1
f 333/20/1 334/21/1 335/13/1 336/11/1
f 337/22/1 338/23/1 339/16/1 340/15/1
f 341/23/1 342/24/1 343/17/1 344/16/1
f 345/24/1 346/25/1 347/18/1 348/17/1
f 349/25/1 350/26/1 351/19/1 352/18/1
f 353/26/1 354/27/1 355/20/1 356/19/1
f 357/27/1 358/28/1 359/21/1 360/20/1
f 361/29/1 362/30/1 363/23/1 364/22/1
f 365/30/1 366/31/1 367/24/1 368/23/1
f 369/31/1 370/32/1 371/25/1 372/24/1
f 373/32/1 374/33/1 375/26/1 376/25/1
f 377/33/1 378/34/1 379/27/1 380/26/1
f 381/34/1 382/35/1 383/28/1 384/27/1
f 385/1/1 386/2/1 387/3/1 388/4/1
f 389/2/1 390/5/1 391/6/1 392/3/1
f 393/5/1 394/7/1 395/8/1 396/6/1
f 397/7/1 398/9/1 399/10/1 400/8/1
f 401/9/1 402/11/1 403/12/1 404/10/1
f 405/5/1 406/7/1 407/8/1 408/6/1
f 409/7/1 410/9/1 411/10/1 412/8/1
f 413/9/1 414/11/1 415/12/1 416/10/1
f 417/5/1 418/7/1 419/8/1 420/6/1
f 421/7/1 422/9/1 423/10/1 424/8/1
f 425/9/1 426/11/1 427/12/1 428/10/1
f 429/11/1 430/13/1 431/14/1 432/12/1
f 433/13/1 434/36/1 435/37/1 436/14/1
f 437/36/1 438/38/1 439/39/1 440/37/1
f 441/40/1 442/41/1 443/42/1 444/43/1
f 445/41/1 446/44/1 447/45/1 448/42/1
f 449/44/1 450/46/1 451/47/1 452/45/1
f 453/46/1 454/1/1 455/4/1 456/47/1
f 457/15/1 458/16/1 459/2/1 460/1/1
f 461/16/1 462/17/1 463/5/1 464/2/1
f 465/17/1 466/18/1 467/7/1 468/5/1
f 469/18/1 470/19/1 471/9/1 472/7/1
f 473/19/1 474/20/1 475/11/1 476/9/1
f 477/17/1 478/18/1 479/7/1 480/5/1
f 481/18/1 482/19/1 483/9/1 484/7/1
f 485/19/1 486/20/1 487/11/1 488/9/1
f 489/17/1 490/18/1 491/7/1 492/5/1
f 493/18/1 494/19/1 495/9/1 496/7/1
f 497/19/1 498/20/1 499/11/1 500/9/1
f 501/20/1 502/21/1 503/13/1 504/11/1
f 505/21/1 506/48/1 507/36/1 508/13/1
f 509/48/1 510/49/1 511/38/1 512/36/1
f 513/50/1 514/51/1 515/41/1 516/40/1
f 517/51/1 518/52/1 519/44/1 520/41/1
f 521/52/1 522/53/1 523/46/1 524/44/1
f 525/53/1 526/15/1 527/1/1 528/46/1
f 529/22/1 530/23/1 531/16/1 532/15/1
f 533/23/1 534/24/1 535/17/1 536/16/1
f 537/24/1 538/25/1 539/18/1 540/17/1
f 541/25/1 542/26/1 543/19/1 544/18/1
f 545/26/1 546/27/1 547/20/1 548/19/1
f 549/24/1 550/25/1 551/18/1 552/17/1
f 553/25/1 554/26/1 555/19/1 556/18/1
f 557/26/1 558/27/1 559/20/1 560/19/1
f 561/24/1 562/25/1 563/18/1 564/17/1
f 565/25/1 566/26/1 567/19/1 568/18/1
f 569/26/1 570/27/1 571/20/1 572/19/1
f 573/27/1 574/28/1 575/21/1 576/20/1
f 577/28/1 578/54/1 579/48/1 580/21/1
f 581/54/1 582/55/1 583/49/1 584/48/1
f 585/56/1 586/57/1 587/51/1 588/50/1
f 589/57/1 590/58/1 591/52/1 592/51/1
f 593/58/1 594/59/1 595/53/1 596/52/1
f 597/59/1 598/22/1 599/15/1 600/53/1
f 601/29/1 602/30/1 603/23/1 604/22/1
f 605/30/1 606/31/1 607/24/1 608/23/1
f 609/31/1 610/32/1 611/25/1 612/24/1
f 613/32/1 614/33/1 615/26/1 616/25/1
f 617/33/1 618/34/1 619/27/1 620/26/1
f 621/31/1 622/32/1 623/25/1 624/24/1
f 625/32/1 626/33/1 627/26/1 628/25/1
f 629/33/1 630/34/1 631/27/1 632/26/1
f 633/31/1 634/32/1 635/25/1 636/24/1
f 637/32/1 638/33/1 639/26/1 640/25/1
f 641/33/1 642/34/1 643/27/1 644/26/1
f 645/34/1 646/35/1 647/28/1 648/27/1
f 649/35/1 650/60/1 651/54/1 652/28/1
f 653/60/1 654/61/1 655/55/1 656/54/1
f 657/62/1 658/63/1 659/57/1 660/56/1
f 661/63/1 662/64/1 663/58/1 664/57/1
f 665/64/1 666/65/1 667/59/1 668/58/1
f 669/65/1 670/29/1 671/22/1 672/59/1
f 673/66/1 674/67/1 675/63/1 676/62/1
f 677/67/1 678/68/1 679/64/1 680/63/1
f 681/68/1 682/69/1 683/65/1 684/64/1
f 685/69/1 686/70/1 687/29/1 688/65/1
f 689/71/1 690/72/1 691/67/1 692/66/1
f 693/72/1 694/73/1 695/68/1 696/67/1
f 697/73/1 698/74/1 699/69/1 700/68/1
f 701/74/1 702/75/1 703/70/1 704/69/1
f 705/76/1 706/77/1 707/72/1 708/71/1
f 709/77/1 710/78/1 711/73/1 712/72/1
f 713/78/1 714/79/1 715/74/1 716/73/1
f 717/79/1 718/80/1 719/75/1 720/74/1

