# Tiled2Unity generated file. Do not modify by hand.
# Wavefront file for 'UnityGameTile_mesh_0002.obj'

# Vertices (Count = 356)
v -2304 -1472 -0.46
v -2336 -1472 -0.46
v -2336 -1440 -0.46
v -2304 -1440 -0.46
v -2336 -1472 -0.46
v -2368 -1472 -0.46
v -2368 -1440 -0.46
v -2336 -1440 -0.46
v -2368 -1472 -0.46
v -2400 -1472 -0.46
v -2400 -1440 -0.46
v -2368 -1440 -0.46
v -2400 -1472 -0.46
v -2432 -1472 -0.46
v -2432 -1440 -0.46
v -2400 -1440 -0.46
v -2304 -1504 -0.47
v -2336 -1504 -0.47
v -2336 -1472 -0.47
v -2304 -1472 -0.47
v -2336 -1504 -0.47
v -2368 -1504 -0.47
v -2368 -1472 -0.47
v -2336 -1472 -0.47
v -2368 -1504 -0.47
v -2400 -1504 -0.47
v -2400 -1472 -0.47
v -2368 -1472 -0.47
v -2400 -1504 -0.47
v -2432 -1504 -0.47
v -2432 -1472 -0.47
v -2400 -1472 -0.47
v -2304 -1536 -0.48
v -2336 -1536 -0.48
v -2336 -1504 -0.48
v -2304 -1504 -0.48
v -2336 -1536 -0.48
v -2368 -1536 -0.48
v -2368 -1504 -0.48
v -2336 -1504 -0.48
v -2368 -1536 -0.48
v -2400 -1536 -0.48
v -2400 -1504 -0.48
v -2368 -1504 -0.48
v -2400 -1536 -0.48
v -2432 -1536 -0.48
v -2432 -1504 -0.48
v -2400 -1504 -0.48
v -2304 -1568 -0.49
v -2336 -1568 -0.49
v -2336 -1536 -0.49
v -2304 -1536 -0.49
v -2336 -1568 -0.49
v -2368 -1568 -0.49
v -2368 -1536 -0.49
v -2336 -1536 -0.49
v -2368 -1568 -0.49
v -2400 -1568 -0.49
v -2400 -1536 -0.49
v -2368 -1536 -0.49
v -2400 -1568 -0.49
v -2432 -1568 -0.49
v -2432 -1536 -0.49
v -2400 -1536 -0.49
v -2304 -1600 -0.5
v -2336 -1600 -0.5
v -2336 -1568 -0.5
v -2304 -1568 -0.5
v -2336 -1600 -0.5
v -2368 -1600 -0.5
v -2368 -1568 -0.5
v -2336 -1568 -0.5
v -2368 -1600 -0.5
v -2400 -1600 -0.5
v -2400 -1568 -0.5
v -2368 -1568 -0.5
v -2400 -1600 -0.5
v -2432 -1600 -0.5
v -2432 -1568 -0.5
v -2400 -1568 -0.5
v -2304 -1632 -0.51
v -2336 -1632 -0.51
v -2336 -1600 -0.51
v -2304 -1600 -0.51
v -2336 -1632 -0.51
v -2368 -1632 -0.51
v -2368 -1600 -0.51
v -2336 -1600 -0.51
v -2368 -1632 -0.51
v -2400 -1632 -0.51
v -2400 -1600 -0.51
v -2368 -1600 -0.51
v -2400 -1632 -0.51
v -2432 -1632 -0.51
v -2432 -1600 -0.51
v -2400 -1600 -0.51
v -2304 -1664 -0.52
v -2336 -1664 -0.52
v -2336 -1632 -0.52
v -2304 -1632 -0.52
v -2336 -1664 -0.52
v -2368 -1664 -0.52
v -2368 -1632 -0.52
v -2336 -1632 -0.52
v -2368 -1664 -0.52
v -2400 -1664 -0.52
v -2400 -1632 -0.52
v -2368 -1632 -0.52
v -2400 -1664 -0.52
v -2432 -1664 -0.52
v -2432 -1632 -0.52
v -2400 -1632 -0.52
v -2336 -1696 -0.53
v -2368 -1696 -0.53
v -2368 -1664 -0.53
v -2336 -1664 -0.53
v -2368 -1696 -0.53
v -2400 -1696 -0.53
v -2400 -1664 -0.53
v -2368 -1664 -0.53
v -2400 -1696 -0.53
v -2432 -1696 -0.53
v -2432 -1664 -0.53
v -2400 -1664 -0.53
v -2304 -1728 -0.54
v -2336 -1728 -0.54
v -2336 -1696 -0.54
v -2304 -1696 -0.54
v -2336 -1728 -0.54
v -2368 -1728 -0.54
v -2368 -1696 -0.54
v -2336 -1696 -0.54
v -2368 -1728 -0.54
v -2400 -1728 -0.54
v -2400 -1696 -0.54
v -2368 -1696 -0.54
v -2400 -1728 -0.54
v -2432 -1728 -0.54
v -2432 -1696 -0.54
v -2400 -1696 -0.54
v -2336 -1760 -0.55
v -2368 -1760 -0.55
v -2368 -1728 -0.55
v -2336 -1728 -0.55
v -2368 -1760 -0.55
v -2400 -1760 -0.55
v -2400 -1728 -0.55
v -2368 -1728 -0.55
v -2400 -1760 -0.55
v -2432 -1760 -0.55
v -2432 -1728 -0.55
v -2400 -1728 -0.55
v -2336 -1792 -0.56
v -2368 -1792 -0.56
v -2368 -1760 -0.56
v -2336 -1760 -0.56
v -2368 -1792 -0.56
v -2400 -1792 -0.56
v -2400 -1760 -0.56
v -2368 -1760 -0.56
v -2400 -1792 -0.56
v -2432 -1792 -0.56
v -2432 -1760 -0.56
v -2400 -1760 -0.56
v -2336 -1824 -0.57
v -2368 -1824 -0.57
v -2368 -1792 -0.57
v -2336 -1792 -0.57
v -2368 -1824 -0.57
v -2400 -1824 -0.57
v -2400 -1792 -0.57
v -2368 -1792 -0.57
v -2400 -1824 -0.57
v -2432 -1824 -0.57
v -2432 -1792 -0.57
v -2400 -1792 -0.57
v -2336 -1856 -0.58
v -2368 -1856 -0.58
v -2368 -1824 -0.58
v -2336 -1824 -0.58
v -2368 -1856 -0.58
v -2400 -1856 -0.58
v -2400 -1824 -0.58
v -2368 -1824 -0.58
v -2400 -1856 -0.58
v -2432 -1856 -0.58
v -2432 -1824 -0.58
v -2400 -1824 -0.58
v -2336 -1888 -0.59
v -2368 -1888 -0.59
v -2368 -1856 -0.59
v -2336 -1856 -0.59
v -2368 -1888 -0.59
v -2400 -1888 -0.59
v -2400 -1856 -0.59
v -2368 -1856 -0.59
v -2400 -1888 -0.59
v -2432 -1888 -0.59
v -2432 -1856 -0.59
v -2400 -1856 -0.59
v -2304 -1920 -0.6
v -2336 -1920 -0.6
v -2336 -1888 -0.6
v -2304 -1888 -0.6
v -2336 -1920 -0.6
v -2368 -1920 -0.6
v -2368 -1888 -0.6
v -2336 -1888 -0.6
v -2368 -1920 -0.6
v -2400 -1920 -0.6
v -2400 -1888 -0.6
v -2368 -1888 -0.6
v -2400 -1920 -0.6
v -2432 -1920 -0.6
v -2432 -1888 -0.6
v -2400 -1888 -0.6
v -2304 -1952 -0.61
v -2336 -1952 -0.61
v -2336 -1920 -0.61
v -2304 -1920 -0.61
v -2336 -1952 -0.61
v -2368 -1952 -0.61
v -2368 -1920 -0.61
v -2336 -1920 -0.61
v -2368 -1952 -0.61
v -2400 -1952 -0.61
v -2400 -1920 -0.61
v -2368 -1920 -0.61
v -2400 -1952 -0.61
v -2432 -1952 -0.61
v -2432 -1920 -0.61
v -2400 -1920 -0.61
v -2304 -1984 -0.62
v -2336 -1984 -0.62
v -2336 -1952 -0.62
v -2304 -1952 -0.62
v -2336 -1984 -0.62
v -2368 -1984 -0.62
v -2368 -1952 -0.62
v -2336 -1952 -0.62
v -2368 -1984 -0.62
v -2400 -1984 -0.62
v -2400 -1952 -0.62
v -2368 -1952 -0.62
v -2400 -1984 -0.62
v -2432 -1984 -0.62
v -2432 -1952 -0.62
v -2400 -1952 -0.62
v -2304 -2016 -0.63
v -2336 -2016 -0.63
v -2336 -1984 -0.63
v -2304 -1984 -0.63
v -2336 -2016 -0.63
v -2368 -2016 -0.63
v -2368 -1984 -0.63
v -2336 -1984 -0.63
v -2368 -2016 -0.63
v -2400 -2016 -0.63
v -2400 -1984 -0.63
v -2368 -1984 -0.63
v -2400 -2016 -0.63
v -2432 -2016 -0.63
v -2432 -1984 -0.63
v -2400 -1984 -0.63
v -2304 -2048 -0.64
v -2336 -2048 -0.64
v -2336 -2016 -0.64
v -2304 -2016 -0.64
v -2336 -2048 -0.64
v -2368 -2048 -0.64
v -2368 -2016 -0.64
v -2336 -2016 -0.64
v -2368 -2048 -0.64
v -2400 -2048 -0.64
v -2400 -2016 -0.64
v -2368 -2016 -0.64
v -2400 -2048 -0.64
v -2432 -2048 -0.64
v -2432 -2016 -0.64
v -2400 -2016 -0.64
v -2304 -2080 -0.65
v -2336 -2080 -0.65
v -2336 -2048 -0.65
v -2304 -2048 -0.65
v -2336 -2080 -0.65
v -2368 -2080 -0.65
v -2368 -2048 -0.65
v -2336 -2048 -0.65
v -2368 -2080 -0.65
v -2400 -2080 -0.65
v -2400 -2048 -0.65
v -2368 -2048 -0.65
v -2400 -2080 -0.65
v -2432 -2080 -0.65
v -2432 -2048 -0.65
v -2400 -2048 -0.65
v -2304 -2112 -0.66
v -2336 -2112 -0.66
v -2336 -2080 -0.66
v -2304 -2080 -0.66
v -2336 -2112 -0.66
v -2368 -2112 -0.66
v -2368 -2080 -0.66
v -2336 -2080 -0.66
v -2368 -2112 -0.66
v -2400 -2112 -0.66
v -2400 -2080 -0.66
v -2368 -2080 -0.66
v -2400 -2112 -0.66
v -2432 -2112 -0.66
v -2432 -2080 -0.66
v -2400 -2080 -0.66
v -2304 -2144 -0.67
v -2336 -2144 -0.67
v -2336 -2112 -0.67
v -2304 -2112 -0.67
v -2336 -2144 -0.67
v -2368 -2144 -0.67
v -2368 -2112 -0.67
v -2336 -2112 -0.67
v -2368 -2144 -0.67
v -2400 -2144 -0.67
v -2400 -2112 -0.67
v -2368 -2112 -0.67
v -2400 -2144 -0.67
v -2432 -2144 -0.67
v -2432 -2112 -0.67
v -2400 -2112 -0.67
v -2304 -2176 -0.68
v -2336 -2176 -0.68
v -2336 -2144 -0.68
v -2304 -2144 -0.68
v -2336 -2176 -0.68
v -2368 -2176 -0.68
v -2368 -2144 -0.68
v -2336 -2144 -0.68
v -2368 -2176 -0.68
v -2400 -2176 -0.68
v -2400 -2144 -0.68
v -2368 -2144 -0.68
v -2400 -2176 -0.68
v -2432 -2176 -0.68
v -2432 -2144 -0.68
v -2400 -2144 -0.68
v -2336 -2208 -0.69
v -2368 -2208 -0.69
v -2368 -2176 -0.69
v -2336 -2176 -0.69
v -2368 -2208 -0.69
v -2400 -2208 -0.69
v -2400 -2176 -0.69
v -2368 -2176 -0.69
v -2400 -2208 -0.69
v -2432 -2208 -0.69
v -2432 -2176 -0.69
v -2400 -2176 -0.69

# Texture cooridinates (Count = 30)
vt 0 0.9444444
vt 0.04166667 0.9444444
vt 0.04166667 1
vt 0 1
vt 0.375 0.9444444
vt 0.4166667 0.9444444
vt 0.4166667 1
vt 0.375 1
vt 0.4583333 0.9444444
vt 0.4583333 1
vt 0.5 0.9444444
vt 0.5 1
vt 0 0.8888889
vt 0.04166667 0.8888889
vt 0 0.8333333
vt 0.04166667 0.8333333
vt 0.375 0.8888889
vt 0.4166667 0.8888889
vt 0.4583333 0.8888889
vt 0.5 0.8888889
vt 0 0.7777778
vt 0.04166667 0.7777778
vt 0.375 0.8333333
vt 0.4166667 0.8333333
vt 0.4583333 0.8333333
vt 0.5 0.8333333
vt 0.375 0.7777778
vt 0.4166667 0.7777778
vt 0.4583333 0.7777778
vt 0.5 0.7777778

# Normal
vn 0 0 -1

# Mesh description
g UnityGameTile_mesh_0002

# Faces
f 1/1/1 2/2/1 3/3/1 4/4/1
f 5/5/1 6/6/1 7/7/1 8/8/1
f 9/6/1 10/9/1 11/10/1 12/7/1
f 13/9/1 14/11/1 15/12/1 16/10/1
f 17/13/1 18/14/1 19/2/1 20/1/1
f 21/5/1 22/6/1 23/7/1 24/8/1
f 25/6/1 26/9/1 27/10/1 28/7/1
f 29/9/1 30/11/1 31/12/1 32/10/1
f 33/15/1 34/16/1 35/14/1 36/13/1
f 37/5/1 38/6/1 39/7/1 40/8/1
f 41/6/1 42/9/1 43/10/1 44/7/1
f 45/9/1 46/11/1 47/12/1 48/10/1
f 49/13/1 50/14/1 51/2/1 52/1/1
f 53/5/1 54/6/1 55/7/1 56/8/1
f 57/6/1 58/9/1 59/10/1 60/7/1
f 61/9/1 62/11/1 63/12/1 64/10/1
f 65/1/1 66/2/1 67/3/1 68/4/1
f 69/5/1 70/6/1 71/7/1 72/8/1
f 73/6/1 74/9/1 75/10/1 76/7/1
f 77/9/1 78/11/1 79/12/1 80/10/1
f 81/13/1 82/14/1 83/2/1 84/1/1
f 85/5/1 86/6/1 87/7/1 88/8/1
f 89/6/1 90/9/1 91/10/1 92/7/1
f 93/9/1 94/11/1 95/12/1 96/10/1
f 97/15/1 98/16/1 99/14/1 100/13/1
f 101/5/1 102/6/1 103/7/1 104/8/1
f 105/6/1 106/9/1 107/10/1 108/7/1
f 109/9/1 110/11/1 111/12/1 112/10/1
f 113/5/1 114/6/1 115/7/1 116/8/1
f 117/6/1 118/9/1 119/10/1 120/7/1
f 121/9/1 122/11/1 123/12/1 124/10/1
f 125/15/1 126/16/1 127/14/1 128/13/1
f 129/5/1 130/6/1 131/7/1 132/8/1
f 133/6/1 134/9/1 135/10/1 136/7/1
f 137/9/1 138/11/1 139/12/1 140/10/1
f 141/5/1 142/6/1 143/7/1 144/8/1
f 145/6/1 146/9/1 147/10/1 148/7/1
f 149/9/1 150/11/1 151/12/1 152/10/1
f 153/5/1 154/6/1 155/7/1 156/8/1
f 157/6/1 158/9/1 159/10/1 160/7/1
f 161/9/1 162/11/1 163/12/1 164/10/1
f 165/5/1 166/6/1 167/7/1 168/8/1
f 169/6/1 170/9/1 171/10/1 172/7/1
f 173/9/1 174/11/1 175/12/1 176/10/1
f 177/5/1 178/6/1 179/7/1 180/8/1
f 181/6/1 182/9/1 183/10/1 184/7/1
f 185/9/1 186/11/1 187/12/1 188/10/1
f 189/5/1 190/6/1 191/7/1 192/8/1
f 193/6/1 194/9/1 195/10/1 196/7/1
f 197/9/1 198/11/1 199/12/1 200/10/1
f 201/1/1 202/2/1 203/3/1 204/4/1
f 205/5/1 206/6/1 207/7/1 208/8/1
f 209/6/1 210/9/1 211/10/1 212/7/1
f 213/9/1 214/11/1 215/12/1 216/10/1
f 217/1/1 218/2/1 219/3/1 220/4/1
f 221/5/1 222/6/1 223/7/1 224/8/1
f 225/6/1 226/9/1 227/10/1 228/7/1
f 229/9/1 230/11/1 231/12/1 232/10/1
f 233/1/1 234/2/1 235/3/1 236/4/1
f 237/5/1 238/6/1 239/7/1 240/8/1
f 241/6/1 242/9/1 243/10/1 244/7/1
f 245/9/1 246/11/1 247/12/1 248/10/1
f 249/1/1 250/2/1 251/3/1 252/4/1
f 253/5/1 254/6/1 255/7/1 256/8/1
f 257/6/1 258/9/1 259/10/1 260/7/1
f 261/9/1 262/11/1 263/12/1 264/10/1
f 265/1/1 266/2/1 267/3/1 268/4/1
f 269/5/1 270/6/1 271/7/1 272/8/1
f 273/6/1 274/9/1 275/10/1 276/7/1
f 277/9/1 278/11/1 279/12/1 280/10/1
f 281/1/1 282/2/1 283/3/1 284/4/1
f 285/5/1 286/6/1 287/7/1 288/8/1
f 289/6/1 290/9/1 291/10/1 292/7/1
f 293/9/1 294/11/1 295/12/1 296/10/1
f 297/13/1 298/14/1 299/2/1 300/1/1
f 301/5/1 302/6/1 303/7/1 304/8/1
f 305/6/1 306/9/1 307/10/1 308/7/1
f 309/9/1 310/11/1 311/12/1 312/10/1
f 313/15/1 314/16/1 315/14/1 316/13/1
f 317/17/1 318/18/1 319/6/1 320/5/1
f 321/18/1 322/19/1 323/9/1 324/6/1
f 325/19/1 326/20/1 327/11/1 328/9/1
f 329/21/1 330/22/1 331/16/1 332/15/1
f 333/23/1 334/24/1 335/18/1 336/17/1
f 337/24/1 338/25/1 339/19/1 340/18/1
f 341/25/1 342/26/1 343/20/1 344/19/1
f 345/27/1 346/28/1 347/24/1 348/23/1
f 349/28/1 350/29/1 351/25/1 352/24/1
f 353/29/1 354/30/1 355/26/1 356/25/1

