# Tiled2Unity generated file. Do not modify by hand.
# Wavefront file for 'UnityGameTile_mesh_0007.obj'

# Vertices (Count = 12)
v -2304 -1728 -0.54
v -2336 -1728 -0.54
v -2336 -1696 -0.54
v -2304 -1696 -0.54
v -2304 -1760 -0.55
v -2336 -1760 -0.55
v -2336 -1728 -0.55
v -2304 -1728 -0.55
v -2304 -1792 -0.56
v -2336 -1792 -0.56
v -2336 -1760 -0.56
v -2304 -1760 -0.56

# Texture cooridinates (Count = 8)
vt 0.2777778 0.9230769
vt 0.3333333 0.9230769
vt 0.3333333 1
vt 0.2777778 1
vt 0.2777778 0.8461539
vt 0.3333333 0.8461539
vt 0.2777778 0.7692308
vt 0.3333333 0.7692308

# Normal
vn 0 0 -1

# Mesh description
g UnityGameTile_mesh_0007

# Faces
f 1/1/1 2/2/1 3/3/1 4/4/1
f 5/5/1 6/6/1 7/2/1 8/1/1
f 9/7/1 10/8/1 11/6/1 12/5/1

