# Tiled2Unity generated file. Do not modify by hand.
# Wavefront file for 'UnityGameTile_mesh_0008.obj'

# Vertices (Count = 16)
v -2304 -1824 -0.57
v -2336 -1824 -0.57
v -2336 -1792 -0.57
v -2304 -1792 -0.57
v -2304 -1856 -0.58
v -2336 -1856 -0.58
v -2336 -1824 -0.58
v -2304 -1824 -0.58
v -2304 -1888 -0.59
v -2336 -1888 -0.59
v -2336 -1856 -0.59
v -2304 -1856 -0.59
v -2304 -1920 -0.6
v -2336 -1920 -0.6
v -2336 -1888 -0.6
v -2304 -1888 -0.6

# Texture cooridinates (Count = 10)
vt 0 0.7777778
vt 0.04166667 0.7777778
vt 0.04166667 0.8333333
vt 0 0.8333333
vt 0 0.9444444
vt 0.04166667 0.9444444
vt 0.04166667 1
vt 0 1
vt 0 0.8888889
vt 0.04166667 0.8888889

# Normal
vn 0 0 -1

# Mesh description
g UnityGameTile_mesh_0008

# Faces
f 1/1/1 2/2/1 3/3/1 4/4/1
f 5/5/1 6/6/1 7/7/1 8/8/1
f 9/9/1 10/10/1 11/6/1 12/5/1
f 13/4/1 14/3/1 15/10/1 16/9/1

