# Tiled2Unity generated file. Do not modify by hand.
# Wavefront file for 'UnityGameTile_mesh_0005.obj'

# Vertices (Count = 128)
v -2208 -1536 -0.48
v -2240 -1536 -0.48
v -2240 -1504 -0.48
v -2208 -1504 -0.48
v -2240 -1536 -0.48
v -2272 -1536 -0.48
v -2272 -1504 -0.48
v -2240 -1504 -0.48
v -2272 -1536 -0.48
v -2304 -1536 -0.48
v -2304 -1504 -0.48
v -2272 -1504 -0.48
v -2304 -1536 -0.48
v -2336 -1536 -0.48
v -2336 -1504 -0.48
v -2304 -1504 -0.48
v -2336 -1536 -0.48
v -2368 -1536 -0.48
v -2368 -1504 -0.48
v -2336 -1504 -0.48
v -2368 -1536 -0.48
v -2400 -1536 -0.48
v -2400 -1504 -0.48
v -2368 -1504 -0.48
v -2400 -1536 -0.48
v -2432 -1536 -0.48
v -2432 -1504 -0.48
v -2400 -1504 -0.48
v -2432 -1536 -0.48
v -2464 -1536 -0.48
v -2464 -1504 -0.48
v -2432 -1504 -0.48
v -2208 -1568 -0.49
v -2240 -1568 -0.49
v -2240 -1536 -0.49
v -2208 -1536 -0.49
v -2240 -1568 -0.49
v -2272 -1568 -0.49
v -2272 -1536 -0.49
v -2240 -1536 -0.49
v -2272 -1568 -0.49
v -2304 -1568 -0.49
v -2304 -1536 -0.49
v -2272 -1536 -0.49
v -2304 -1568 -0.49
v -2336 -1568 -0.49
v -2336 -1536 -0.49
v -2304 -1536 -0.49
v -2336 -1568 -0.49
v -2368 -1568 -0.49
v -2368 -1536 -0.49
v -2336 -1536 -0.49
v -2368 -1568 -0.49
v -2400 -1568 -0.49
v -2400 -1536 -0.49
v -2368 -1536 -0.49
v -2400 -1568 -0.49
v -2432 -1568 -0.49
v -2432 -1536 -0.49
v -2400 -1536 -0.49
v -2432 -1568 -0.49
v -2464 -1568 -0.49
v -2464 -1536 -0.49
v -2432 -1536 -0.49
v -2208 -1600 -0.5
v -2240 -1600 -0.5
v -2240 -1568 -0.5
v -2208 -1568 -0.5
v -2240 -1600 -0.5
v -2272 -1600 -0.5
v -2272 -1568 -0.5
v -2240 -1568 -0.5
v -2272 -1600 -0.5
v -2304 -1600 -0.5
v -2304 -1568 -0.5
v -2272 -1568 -0.5
v -2304 -1600 -0.5
v -2336 -1600 -0.5
v -2336 -1568 -0.5
v -2304 -1568 -0.5
v -2336 -1600 -0.5
v -2368 -1600 -0.5
v -2368 -1568 -0.5
v -2336 -1568 -0.5
v -2368 -1600 -0.5
v -2400 -1600 -0.5
v -2400 -1568 -0.5
v -2368 -1568 -0.5
v -2400 -1600 -0.5
v -2432 -1600 -0.5
v -2432 -1568 -0.5
v -2400 -1568 -0.5
v -2432 -1600 -0.5
v -2464 -1600 -0.5
v -2464 -1568 -0.5
v -2432 -1568 -0.5
v -2208 -1632 -0.51
v -2240 -1632 -0.51
v -2240 -1600 -0.51
v -2208 -1600 -0.51
v -2240 -1632 -0.51
v -2272 -1632 -0.51
v -2272 -1600 -0.51
v -2240 -1600 -0.51
v -2272 -1632 -0.51
v -2304 -1632 -0.51
v -2304 -1600 -0.51
v -2272 -1600 -0.51
v -2304 -1632 -0.51
v -2336 -1632 -0.51
v -2336 -1600 -0.51
v -2304 -1600 -0.51
v -2336 -1632 -0.51
v -2368 -1632 -0.51
v -2368 -1600 -0.51
v -2336 -1600 -0.51
v -2368 -1632 -0.51
v -2400 -1632 -0.51
v -2400 -1600 -0.51
v -2368 -1600 -0.51
v -2400 -1632 -0.51
v -2432 -1632 -0.51
v -2432 -1600 -0.51
v -2400 -1600 -0.51
v -2432 -1632 -0.51
v -2464 -1632 -0.51
v -2464 -1600 -0.51
v -2432 -1600 -0.51

# Texture cooridinates (Count = 45)
vt 0.6666667 0.9583333
vt 0.7083333 0.9583333
vt 0.7083333 1
vt 0.6666667 1
vt 0.75 0.9583333
vt 0.75 1
vt 0.7916667 0.9583333
vt 0.7916667 1
vt 0.8333333 0.9583333
vt 0.8333333 1
vt 0.875 0.9583333
vt 0.875 1
vt 0.9166667 0.9583333
vt 0.9166667 1
vt 0.9583333 0.9583333
vt 0.9583333 1
vt 1 0.9583333
vt 1 1
vt 0.6666667 0.9166667
vt 0.7083333 0.9166667
vt 0.75 0.9166667
vt 0.7916667 0.9166667
vt 0.8333333 0.9166667
vt 0.875 0.9166667
vt 0.9166667 0.9166667
vt 0.9583333 0.9166667
vt 1 0.9166667
vt 0.6666667 0.875
vt 0.7083333 0.875
vt 0.75 0.875
vt 0.7916667 0.875
vt 0.8333333 0.875
vt 0.875 0.875
vt 0.9166667 0.875
vt 0.9583333 0.875
vt 1 0.875
vt 0.6666667 0.8333333
vt 0.7083333 0.8333333
vt 0.75 0.8333333
vt 0.7916667 0.8333333
vt 0.8333333 0.8333333
vt 0.875 0.8333333
vt 0.9166667 0.8333333
vt 0.9583333 0.8333333
vt 1 0.8333333

# Normal
vn 0 0 -1

# Mesh description
g UnityGameTile_mesh_0005

# Faces
f 1/1/1 2/2/1 3/3/1 4/4/1
f 5/2/1 6/5/1 7/6/1 8/3/1
f 9/5/1 10/7/1 11/8/1 12/6/1
f 13/7/1 14/9/1 15/10/1 16/8/1
f 17/9/1 18/11/1 19/12/1 20/10/1
f 21/11/1 22/13/1 23/14/1 24/12/1
f 25/13/1 26/15/1 27/16/1 28/14/1
f 29/15/1 30/17/1 31/18/1 32/16/1
f 33/19/1 34/20/1 35/2/1 36/1/1
f 37/20/1 38/21/1 39/5/1 40/2/1
f 41/21/1 42/22/1 43/7/1 44/5/1
f 45/22/1 46/23/1 47/9/1 48/7/1
f 49/23/1 50/24/1 51/11/1 52/9/1
f 53/24/1 54/25/1 55/13/1 56/11/1
f 57/25/1 58/26/1 59/15/1 60/13/1
f 61/26/1 62/27/1 63/17/1 64/15/1
f 65/28/1 66/29/1 67/20/1 68/19/1
f 69/29/1 70/30/1 71/21/1 72/20/1
f 73/30/1 74/31/1 75/22/1 76/21/1
f 77/31/1 78/32/1 79/23/1 80/22/1
f 81/32/1 82/33/1 83/24/1 84/23/1
f 85/33/1 86/34/1 87/25/1 88/24/1
f 89/34/1 90/35/1 91/26/1 92/25/1
f 93/35/1 94/36/1 95/27/1 96/26/1
f 97/37/1 98/38/1 99/29/1 100/28/1
f 101/38/1 102/39/1 103/30/1 104/29/1
f 105/39/1 106/40/1 107/31/1 108/30/1
f 109/40/1 110/41/1 111/32/1 112/31/1
f 113/41/1 114/42/1 115/33/1 116/32/1
f 117/42/1 118/43/1 119/34/1 120/33/1
f 121/43/1 122/44/1 123/35/1 124/34/1
f 125/44/1 126/45/1 127/36/1 128/35/1

