# Tiled2Unity generated file. Do not modify by hand.
# Wavefront file for 'map1_mesh_0004.obj'

# Vertices (Count = 456)
v -256 -160 -0.125
v -288 -160 -0.125
v -288 -128 -0.125
v -256 -128 -0.125
v -288 -160 -0.125
v -320 -160 -0.125
v -320 -128 -0.125
v -288 -128 -0.125
v -320 -160 -0.125
v -352 -160 -0.125
v -352 -128 -0.125
v -320 -128 -0.125
v -352 -160 -0.125
v -384 -160 -0.125
v -384 -128 -0.125
v -352 -128 -0.125
v -384 -160 -0.125
v -416 -160 -0.125
v -416 -128 -0.125
v -384 -128 -0.125
v -416 -160 -0.125
v -448 -160 -0.125
v -448 -128 -0.125
v -416 -128 -0.125
v -448 -160 -0.125
v -480 -160 -0.125
v -480 -128 -0.125
v -448 -128 -0.125
v -224 -192 -0.15
v -256 -192 -0.15
v -256 -160 -0.15
v -224 -160 -0.15
v -256 -192 -0.15
v -288 -192 -0.15
v -288 -160 -0.15
v -256 -160 -0.15
v -288 -192 -0.15
v -320 -192 -0.15
v -320 -160 -0.15
v -288 -160 -0.15
v -320 -192 -0.15
v -352 -192 -0.15
v -352 -160 -0.15
v -320 -160 -0.15
v -352 -192 -0.15
v -384 -192 -0.15
v -384 -160 -0.15
v -352 -160 -0.15
v -384 -192 -0.15
v -416 -192 -0.15
v -416 -160 -0.15
v -384 -160 -0.15
v -416 -192 -0.15
v -448 -192 -0.15
v -448 -160 -0.15
v -416 -160 -0.15
v -448 -192 -0.15
v -480 -192 -0.15
v -480 -160 -0.15
v -448 -160 -0.15
v -224 -224 -0.175
v -256 -224 -0.175
v -256 -192 -0.175
v -224 -192 -0.175
v -256 -224 -0.175
v -288 -224 -0.175
v -288 -192 -0.175
v -256 -192 -0.175
v -288 -224 -0.175
v -320 -224 -0.175
v -320 -192 -0.175
v -288 -192 -0.175
v -320 -224 -0.175
v -352 -224 -0.175
v -352 -192 -0.175
v -320 -192 -0.175
v -352 -224 -0.175
v -384 -224 -0.175
v -384 -192 -0.175
v -352 -192 -0.175
v -384 -224 -0.175
v -416 -224 -0.175
v -416 -192 -0.175
v -384 -192 -0.175
v -416 -224 -0.175
v -448 -224 -0.175
v -448 -192 -0.175
v -416 -192 -0.175
v -448 -224 -0.175
v -480 -224 -0.175
v -480 -192 -0.175
v -448 -192 -0.175
v -224 -256 -0.2
v -256 -256 -0.2
v -256 -224 -0.2
v -224 -224 -0.2
v -256 -256 -0.2
v -288 -256 -0.2
v -288 -224 -0.2
v -256 -224 -0.2
v -288 -256 -0.2
v -320 -256 -0.2
v -320 -224 -0.2
v -288 -224 -0.2
v -320 -256 -0.2
v -352 -256 -0.2
v -352 -224 -0.2
v -320 -224 -0.2
v -352 -256 -0.2
v -384 -256 -0.2
v -384 -224 -0.2
v -352 -224 -0.2
v -384 -256 -0.2
v -416 -256 -0.2
v -416 -224 -0.2
v -384 -224 -0.2
v -416 -256 -0.2
v -448 -256 -0.2
v -448 -224 -0.2
v -416 -224 -0.2
v -448 -256 -0.2
v -480 -256 -0.2
v -480 -224 -0.2
v -448 -224 -0.2
v -256 -288 -0.225
v -288 -288 -0.225
v -288 -256 -0.225
v -256 -256 -0.225
v -288 -288 -0.225
v -320 -288 -0.225
v -320 -256 -0.225
v -288 -256 -0.225
v -320 -288 -0.225
v -352 -288 -0.225
v -352 -256 -0.225
v -320 -256 -0.225
v -352 -288 -0.225
v -384 -288 -0.225
v -384 -256 -0.225
v -352 -256 -0.225
v -384 -288 -0.225
v -416 -288 -0.225
v -416 -256 -0.225
v -384 -256 -0.225
v -416 -288 -0.225
v -448 -288 -0.225
v -448 -256 -0.225
v -416 -256 -0.225
v -448 -288 -0.225
v -480 -288 -0.225
v -480 -256 -0.225
v -448 -256 -0.225
v -256 -320 -0.25
v -288 -320 -0.25
v -288 -288 -0.25
v -256 -288 -0.25
v -288 -320 -0.25
v -320 -320 -0.25
v -320 -288 -0.25
v -288 -288 -0.25
v -320 -320 -0.25
v -352 -320 -0.25
v -352 -288 -0.25
v -320 -288 -0.25
v -352 -320 -0.25
v -384 -320 -0.25
v -384 -288 -0.25
v -352 -288 -0.25
v -384 -320 -0.25
v -416 -320 -0.25
v -416 -288 -0.25
v -384 -288 -0.25
v -416 -320 -0.25
v -448 -320 -0.25
v -448 -288 -0.25
v -416 -288 -0.25
v -1280 -384 -0.3
v -1312 -384 -0.3
v -1312 -352 -0.3
v -1280 -352 -0.3
v -1312 -384 -0.3
v -1344 -384 -0.3
v -1344 -352 -0.3
v -1312 -352 -0.3
v -1344 -384 -0.3
v -1376 -384 -0.3
v -1376 -352 -0.3
v -1344 -352 -0.3
v -1376 -384 -0.3
v -1408 -384 -0.3
v -1408 -352 -0.3
v -1376 -352 -0.3
v -1280 -416 -0.325
v -1312 -416 -0.325
v -1312 -384 -0.325
v -1280 -384 -0.325
v -1312 -416 -0.325
v -1344 -416 -0.325
v -1344 -384 -0.325
v -1312 -384 -0.325
v -1344 -416 -0.325
v -1376 -416 -0.325
v -1376 -384 -0.325
v -1344 -384 -0.325
v -1376 -416 -0.325
v -1408 -416 -0.325
v -1408 -384 -0.325
v -1376 -384 -0.325
v -1280 -448 -0.35
v -1312 -448 -0.35
v -1312 -416 -0.35
v -1280 -416 -0.35
v -1312 -448 -0.35
v -1344 -448 -0.35
v -1344 -416 -0.35
v -1312 -416 -0.35
v -1344 -448 -0.35
v -1376 -448 -0.35
v -1376 -416 -0.35
v -1344 -416 -0.35
v -1376 -448 -0.35
v -1408 -448 -0.35
v -1408 -416 -0.35
v -1376 -416 -0.35
v -1280 -480 -0.375
v -1312 -480 -0.375
v -1312 -448 -0.375
v -1280 -448 -0.375
v -1312 -480 -0.375
v -1344 -480 -0.375
v -1344 -448 -0.375
v -1312 -448 -0.375
v -1344 -480 -0.375
v -1376 -480 -0.375
v -1376 -448 -0.375
v -1344 -448 -0.375
v -1376 -480 -0.375
v -1408 -480 -0.375
v -1408 -448 -0.375
v -1376 -448 -0.375
v -1280 -512 -0.4
v -1312 -512 -0.4
v -1312 -480 -0.4
v -1280 -480 -0.4
v -1312 -512 -0.4
v -1344 -512 -0.4
v -1344 -480 -0.4
v -1312 -480 -0.4
v -1344 -512 -0.4
v -1376 -512 -0.4
v -1376 -480 -0.4
v -1344 -480 -0.4
v -1376 -512 -0.4
v -1408 -512 -0.4
v -1408 -480 -0.4
v -1376 -480 -0.4
v -1280 -544 -0.425
v -1312 -544 -0.425
v -1312 -512 -0.425
v -1280 -512 -0.425
v -1312 -544 -0.425
v -1344 -544 -0.425
v -1344 -512 -0.425
v -1312 -512 -0.425
v -1344 -544 -0.425
v -1376 -544 -0.425
v -1376 -512 -0.425
v -1344 -512 -0.425
v -1376 -544 -0.425
v -1408 -544 -0.425
v -1408 -512 -0.425
v -1376 -512 -0.425
v -1824 -544 -0.425
v -1856 -544 -0.425
v -1856 -512 -0.425
v -1824 -512 -0.425
v -896 -672 -0.525
v -928 -672 -0.525
v -928 -640 -0.525
v -896 -640 -0.525
v -896 -704 -0.55
v -928 -704 -0.55
v -928 -672 -0.55
v -896 -672 -0.55
v -288 -896 -0.7
v -320 -896 -0.7
v -320 -864 -0.7
v -288 -864 -0.7
v -192 -928 -0.725
v -224 -928 -0.725
v -224 -896 -0.725
v -192 -896 -0.725
v -224 -928 -0.725
v -256 -928 -0.725
v -256 -896 -0.725
v -224 -896 -0.725
v -256 -928 -0.725
v -288 -928 -0.725
v -288 -896 -0.725
v -256 -896 -0.725
v -288 -928 -0.725
v -320 -928 -0.725
v -320 -896 -0.725
v -288 -896 -0.725
v -320 -928 -0.725
v -352 -928 -0.725
v -352 -896 -0.725
v -320 -896 -0.725
v -352 -928 -0.725
v -384 -928 -0.725
v -384 -896 -0.725
v -352 -896 -0.725
v -192 -960 -0.75
v -224 -960 -0.75
v -224 -928 -0.75
v -192 -928 -0.75
v -224 -960 -0.75
v -256 -960 -0.75
v -256 -928 -0.75
v -224 -928 -0.75
v -256 -960 -0.75
v -288 -960 -0.75
v -288 -928 -0.75
v -256 -928 -0.75
v -288 -960 -0.75
v -320 -960 -0.75
v -320 -928 -0.75
v -288 -928 -0.75
v -320 -960 -0.75
v -352 -960 -0.75
v -352 -928 -0.75
v -320 -928 -0.75
v -352 -960 -0.75
v -384 -960 -0.75
v -384 -928 -0.75
v -352 -928 -0.75
v -384 -960 -0.75
v -416 -960 -0.75
v -416 -928 -0.75
v -384 -928 -0.75
v -224 -992 -0.775
v -256 -992 -0.775
v -256 -960 -0.775
v -224 -960 -0.775
v -256 -992 -0.775
v -288 -992 -0.775
v -288 -960 -0.775
v -256 -960 -0.775
v -288 -992 -0.775
v -320 -992 -0.775
v -320 -960 -0.775
v -288 -960 -0.775
v -320 -992 -0.775
v -352 -992 -0.775
v -352 -960 -0.775
v -320 -960 -0.775
v -352 -992 -0.775
v -384 -992 -0.775
v -384 -960 -0.775
v -352 -960 -0.775
v -224 -1024 -0.8
v -256 -1024 -0.8
v -256 -992 -0.8
v -224 -992 -0.8
v -256 -1024 -0.8
v -288 -1024 -0.8
v -288 -992 -0.8
v -256 -992 -0.8
v -288 -1024 -0.8
v -320 -1024 -0.8
v -320 -992 -0.8
v -288 -992 -0.8
v -320 -1024 -0.8
v -352 -1024 -0.8
v -352 -992 -0.8
v -320 -992 -0.8
v -352 -1024 -0.8
v -384 -1024 -0.8
v -384 -992 -0.8
v -352 -992 -0.8
v -224 -1056 -0.825
v -256 -1056 -0.825
v -256 -1024 -0.825
v -224 -1024 -0.825
v -256 -1056 -0.825
v -288 -1056 -0.825
v -288 -1024 -0.825
v -256 -1024 -0.825
v -288 -1056 -0.825
v -320 -1056 -0.825
v -320 -1024 -0.825
v -288 -1024 -0.825
v -320 -1056 -0.825
v -352 -1056 -0.825
v -352 -1024 -0.825
v -320 -1024 -0.825
v -352 -1056 -0.825
v -384 -1056 -0.825
v -384 -1024 -0.825
v -352 -1024 -0.825
v -224 -1088 -0.85
v -256 -1088 -0.85
v -256 -1056 -0.85
v -224 -1056 -0.85
v -256 -1088 -0.85
v -288 -1088 -0.85
v -288 -1056 -0.85
v -256 -1056 -0.85
v -288 -1088 -0.85
v -320 -1088 -0.85
v -320 -1056 -0.85
v -288 -1056 -0.85
v -320 -1088 -0.85
v -352 -1088 -0.85
v -352 -1056 -0.85
v -320 -1056 -0.85
v -352 -1088 -0.85
v -384 -1088 -0.85
v -384 -1056 -0.85
v -352 -1056 -0.85
v -224 -1120 -0.875
v -256 -1120 -0.875
v -256 -1088 -0.875
v -224 -1088 -0.875
v -256 -1120 -0.875
v -288 -1120 -0.875
v -288 -1088 -0.875
v -256 -1088 -0.875
v -288 -1120 -0.875
v -320 -1120 -0.875
v -320 -1088 -0.875
v -288 -1088 -0.875
v -320 -1120 -0.875
v -352 -1120 -0.875
v -352 -1088 -0.875
v -320 -1088 -0.875
v -384 -1120 -0.875
v -416 -1120 -0.875
v -416 -1088 -0.875
v -384 -1088 -0.875
v -224 -1152 -0.9
v -256 -1152 -0.9
v -256 -1120 -0.9
v -224 -1120 -0.9
v -256 -1152 -0.9
v -288 -1152 -0.9
v -288 -1120 -0.9
v -256 -1120 -0.9
v -288 -1152 -0.9
v -320 -1152 -0.9
v -320 -1120 -0.9
v -288 -1120 -0.9
v -320 -1152 -0.9
v -352 -1152 -0.9
v -352 -1120 -0.9
v -320 -1120 -0.9

# Texture cooridinates (Count = 164)
vt 0.7083333 0.75
vt 0.75 0.75
vt 0.75 0.7916667
vt 0.7083333 0.7916667
vt 0.7916667 0.75
vt 0.7916667 0.7916667
vt 0.8333333 0.75
vt 0.8333333 0.7916667
vt 0.875 0.75
vt 0.875 0.7916667
vt 0.9166667 0.75
vt 0.9166667 0.7916667
vt 0.9583333 0.75
vt 0.9583333 0.7916667
vt 1 0.75
vt 1 0.7916667
vt 0.6666667 0.7083334
vt 0.7083333 0.7083334
vt 0.6666667 0.75
vt 0.75 0.7083334
vt 0.7916667 0.7083334
vt 0.8333333 0.7083334
vt 0.875 0.7083334
vt 0.9166667 0.7083334
vt 0.9583333 0.7083334
vt 1 0.7083334
vt 0.6666667 0.6666666
vt 0.7083333 0.6666666
vt 0.75 0.6666666
vt 0.7916667 0.6666666
vt 0.8333333 0.6666666
vt 0.875 0.6666666
vt 0.9166667 0.6666666
vt 0.9583333 0.6666666
vt 1 0.6666666
vt 0.6666667 0.625
vt 0.7083333 0.625
vt 0.75 0.625
vt 0.7916667 0.625
vt 0.8333333 0.625
vt 0.875 0.625
vt 0.9166667 0.625
vt 0.9583333 0.625
vt 1 0.625
vt 0.7083333 0.5833334
vt 0.75 0.5833334
vt 0.7916667 0.5833334
vt 0.8333333 0.5833334
vt 0.875 0.5833334
vt 0.9166667 0.5833334
vt 0.9583333 0.5833334
vt 1 0.5833334
vt 0.7083333 0.5416666
vt 0.75 0.5416666
vt 0.7916667 0.5416666
vt 0.8333333 0.5416666
vt 0.875 0.5416666
vt 0.9166667 0.5416666
vt 0.9583333 0.5416666
vt 0 0.7083334
vt 0.04166667 0.7083334
vt 0.04166667 0.75
vt 0 0.75
vt 0.08333334 0.7083334
vt 0.08333334 0.75
vt 0.125 0.7083334
vt 0.125 0.75
vt 0.1666667 0.7083334
vt 0.1666667 0.75
vt 0 0.6666666
vt 0.04166667 0.6666666
vt 0.08333334 0.6666666
vt 0.125 0.6666666
vt 0.1666667 0.6666666
vt 0 0.625
vt 0.04166667 0.625
vt 0.08333334 0.625
vt 0.125 0.625
vt 0.1666667 0.625
vt 0 0.5833334
vt 0.04166667 0.5833334
vt 0.08333334 0.5833334
vt 0.125 0.5833334
vt 0.1666667 0.5833334
vt 0 0.5416666
vt 0.04166667 0.5416666
vt 0.08333334 0.5416666
vt 0.125 0.5416666
vt 0.1666667 0.5416666
vt 0 0.5
vt 0.04166667 0.5
vt 0.08333334 0.5
vt 0.125 0.5
vt 0.1666667 0.5
vt 0.4583333 0.8333333
vt 0.5 0.8333333
vt 0.5 0.875
vt 0.4583333 0.875
vt 0.2083333 0.5833334
vt 0.2083333 0.625
vt 0.2083333 0.5416666
vt 0.3333333 0.4583333
vt 0.375 0.4583333
vt 0.375 0.5
vt 0.3333333 0.5
vt 0.1666667 0.4166667
vt 0.2083333 0.4166667
vt 0.2083333 0.4583333
vt 0.1666667 0.4583333
vt 0.25 0.4166667
vt 0.2916667 0.4166667
vt 0.2916667 0.4583333
vt 0.25 0.4583333
vt 0.3333333 0.4166667
vt 0.375 0.4166667
vt 0.4166667 0.4166667
vt 0.4166667 0.4583333
vt 0.4583333 0.4166667
vt 0.4583333 0.4583333
vt 0.1666667 0.375
vt 0.2083333 0.375
vt 0.25 0.375
vt 0.2916667 0.375
vt 0.3333333 0.375
vt 0.375 0.375
vt 0.4166667 0.375
vt 0.2083333 0.3333333
vt 0.25 0.3333333
vt 0.2916667 0.3333333
vt 0.3333333 0.3333333
vt 0.375 0.3333333
vt 0.4166667 0.3333333
vt 0.2083333 0.2916667
vt 0.25 0.2916667
vt 0.2916667 0.2916667
vt 0.3333333 0.2916667
vt 0.375 0.2916667
vt 0.4166667 0.2916667
vt 0.2083333 0.25
vt 0.25 0.25
vt 0.2916667 0.25
vt 0.3333333 0.25
vt 0.375 0.25
vt 0.4166667 0.25
vt 0.2083333 0.2083333
vt 0.25 0.2083333
vt 0.2916667 0.2083333
vt 0.3333333 0.2083333
vt 0.375 0.2083333
vt 0.4166667 0.2083333
vt 0.2083333 0.1666667
vt 0.25 0.1666667
vt 0.2916667 0.1666667
vt 0.3333333 0.1666667
vt 0.375 0.1666667
vt 0.3333333 0.8333333
vt 0.375 0.8333333
vt 0.375 0.875
vt 0.3333333 0.875
vt 0.2083333 0.125
vt 0.25 0.125
vt 0.2916667 0.125
vt 0.3333333 0.125
vt 0.375 0.125

# Normal
vn 0 0 -1

# Mesh description
g map1_mesh_0004

# Faces
f 1/1/1 2/2/1 3/3/1 4/4/1
f 5/2/1 6/5/1 7/6/1 8/3/1
f 9/5/1 10/7/1 11/8/1 12/6/1
f 13/7/1 14/9/1 15/10/1 16/8/1
f 17/9/1 18/11/1 19/12/1 20/10/1
f 21/11/1 22/13/1 23/14/1 24/12/1
f 25/13/1 26/15/1 27/16/1 28/14/1
f 29/17/1 30/18/1 31/1/1 32/19/1
f 33/18/1 34/20/1 35/2/1 36/1/1
f 37/20/1 38/21/1 39/5/1 40/2/1
f 41/21/1 42/22/1 43/7/1 44/5/1
f 45/22/1 46/23/1 47/9/1 48/7/1
f 49/23/1 50/24/1 51/11/1 52/9/1
f 53/24/1 54/25/1 55/13/1 56/11/1
f 57/25/1 58/26/1 59/15/1 60/13/1
f 61/27/1 62/28/1 63/18/1 64/17/1
f 65/28/1 66/29/1 67/20/1 68/18/1
f 69/29/1 70/30/1 71/21/1 72/20/1
f 73/30/1 74/31/1 75/22/1 76/21/1
f 77/31/1 78/32/1 79/23/1 80/22/1
f 81/32/1 82/33/1 83/24/1 84/23/1
f 85/33/1 86/34/1 87/25/1 88/24/1
f 89/34/1 90/35/1 91/26/1 92/25/1
f 93/36/1 94/37/1 95/28/1 96/27/1
f 97/37/1 98/38/1 99/29/1 100/28/1
f 101/38/1 102/39/1 103/30/1 104/29/1
f 105/39/1 106/40/1 107/31/1 108/30/1
f 109/40/1 110/41/1 111/32/1 112/31/1
f 113/41/1 114/42/1 115/33/1 116/32/1
f 117/42/1 118/43/1 119/34/1 120/33/1
f 121/43/1 122/44/1 123/35/1 124/34/1
f 125/45/1 126/46/1 127/38/1 128/37/1
f 129/46/1 130/47/1 131/39/1 132/38/1
f 133/47/1 134/48/1 135/40/1 136/39/1
f 137/48/1 138/49/1 139/41/1 140/40/1
f 141/49/1 142/50/1 143/42/1 144/41/1
f 145/50/1 146/51/1 147/43/1 148/42/1
f 149/51/1 150/52/1 151/44/1 152/43/1
f 153/53/1 154/54/1 155/46/1 156/45/1
f 157/54/1 158/55/1 159/47/1 160/46/1
f 161/55/1 162/56/1 163/48/1 164/47/1
f 165/56/1 166/57/1 167/49/1 168/48/1
f 169/57/1 170/58/1 171/50/1 172/49/1
f 173/58/1 174/59/1 175/51/1 176/50/1
f 177/60/1 178/61/1 179/62/1 180/63/1
f 181/61/1 182/64/1 183/65/1 184/62/1
f 185/64/1 186/66/1 187/67/1 188/65/1
f 189/66/1 190/68/1 191/69/1 192/67/1
f 193/70/1 194/71/1 195/61/1 196/60/1
f 197/71/1 198/72/1 199/64/1 200/61/1
f 201/72/1 202/73/1 203/66/1 204/64/1
f 205/73/1 206/74/1 207/68/1 208/66/1
f 209/75/1 210/76/1 211/71/1 212/70/1
f 213/76/1 214/77/1 215/72/1 216/71/1
f 217/77/1 218/78/1 219/73/1 220/72/1
f 221/78/1 222/79/1 223/74/1 224/73/1
f 225/80/1 226/81/1 227/76/1 228/75/1
f 229/81/1 230/82/1 231/77/1 232/76/1
f 233/82/1 234/83/1 235/78/1 236/77/1
f 237/83/1 238/84/1 239/79/1 240/78/1
f 241/85/1 242/86/1 243/81/1 244/80/1
f 245/86/1 246/87/1 247/82/1 248/81/1
f 249/87/1 250/88/1 251/83/1 252/82/1
f 253/88/1 254/89/1 255/84/1 256/83/1
f 257/90/1 258/91/1 259/86/1 260/85/1
f 261/91/1 262/92/1 263/87/1 264/86/1
f 265/92/1 266/93/1 267/88/1 268/87/1
f 269/93/1 270/94/1 271/89/1 272/88/1
f 273/95/1 274/96/1 275/97/1 276/98/1
f 277/84/1 278/99/1 279/100/1 280/79/1
f 281/89/1 282/101/1 283/99/1 284/84/1
f 285/102/1 286/103/1 287/104/1 288/105/1
f 289/106/1 290/107/1 291/108/1 292/109/1
f 293/110/1 294/111/1 295/112/1 296/113/1
f 297/111/1 298/114/1 299/102/1 300/112/1
f 301/114/1 302/115/1 303/103/1 304/102/1
f 305/115/1 306/116/1 307/117/1 308/103/1
f 309/116/1 310/118/1 311/119/1 312/117/1
f 313/120/1 314/121/1 315/107/1 316/106/1
f 317/121/1 318/122/1 319/110/1 320/107/1
f 321/122/1 322/123/1 323/111/1 324/110/1
f 325/123/1 326/124/1 327/114/1 328/111/1
f 329/124/1 330/125/1 331/115/1 332/114/1
f 333/125/1 334/126/1 335/116/1 336/115/1
f 337/116/1 338/118/1 339/119/1 340/117/1
f 341/127/1 342/128/1 343/122/1 344/121/1
f 345/128/1 346/129/1 347/123/1 348/122/1
f 349/129/1 350/130/1 351/124/1 352/123/1
f 353/130/1 354/131/1 355/125/1 356/124/1
f 357/131/1 358/132/1 359/126/1 360/125/1
f 361/133/1 362/134/1 363/128/1 364/127/1
f 365/134/1 366/135/1 367/129/1 368/128/1
f 369/135/1 370/136/1 371/130/1 372/129/1
f 373/136/1 374/137/1 375/131/1 376/130/1
f 377/137/1 378/138/1 379/132/1 380/131/1
f 381/139/1 382/140/1 383/134/1 384/133/1
f 385/140/1 386/141/1 387/135/1 388/134/1
f 389/141/1 390/142/1 391/136/1 392/135/1
f 393/142/1 394/143/1 395/137/1 396/136/1
f 397/143/1 398/144/1 399/138/1 400/137/1
f 401/145/1 402/146/1 403/140/1 404/139/1
f 405/146/1 406/147/1 407/141/1 408/140/1
f 409/147/1 410/148/1 411/142/1 412/141/1
f 413/148/1 414/149/1 415/143/1 416/142/1
f 417/149/1 418/150/1 419/144/1 420/143/1
f 421/151/1 422/152/1 423/146/1 424/145/1
f 425/152/1 426/153/1 427/147/1 428/146/1
f 429/153/1 430/154/1 431/148/1 432/147/1
f 433/154/1 434/155/1 435/149/1 436/148/1
f 437/156/1 438/157/1 439/158/1 440/159/1
f 441/160/1 442/161/1 443/152/1 444/151/1
f 445/161/1 446/162/1 447/153/1 448/152/1
f 449/162/1 450/163/1 451/154/1 452/153/1
f 453/163/1 454/164/1 455/155/1 456/154/1

