# Tiled2Unity generated file. Do not modify by hand.
# Wavefront file for 'map1_mesh_0005.obj'

# Vertices (Count = 176)
v -608 -128 -0.1
v -640 -128 -0.1
v -640 -96 -0.1
v -608 -96 -0.1
v -640 -128 -0.1
v -672 -128 -0.1
v -672 -96 -0.1
v -640 -96 -0.1
v -672 -128 -0.1
v -704 -128 -0.1
v -704 -96 -0.1
v -672 -96 -0.1
v -704 -128 -0.1
v -736 -128 -0.1
v -736 -96 -0.1
v -704 -96 -0.1
v -608 -160 -0.125
v -640 -160 -0.125
v -640 -128 -0.125
v -608 -128 -0.125
v -640 -160 -0.125
v -672 -160 -0.125
v -672 -128 -0.125
v -640 -128 -0.125
v -672 -160 -0.125
v -704 -160 -0.125
v -704 -128 -0.125
v -672 -128 -0.125
v -704 -160 -0.125
v -736 -160 -0.125
v -736 -128 -0.125
v -704 -128 -0.125
v -576 -192 -0.15
v -608 -192 -0.15
v -608 -160 -0.15
v -576 -160 -0.15
v -608 -192 -0.15
v -640 -192 -0.15
v -640 -160 -0.15
v -608 -160 -0.15
v -640 -192 -0.15
v -672 -192 -0.15
v -672 -160 -0.15
v -640 -160 -0.15
v -672 -192 -0.15
v -704 -192 -0.15
v -704 -160 -0.15
v -672 -160 -0.15
v -704 -192 -0.15
v -736 -192 -0.15
v -736 -160 -0.15
v -704 -160 -0.15
v -64 -416 -0.325
v -96 -416 -0.325
v -96 -384 -0.325
v -64 -384 -0.325
v -96 -416 -0.325
v -128 -416 -0.325
v -128 -384 -0.325
v -96 -384 -0.325
v -128 -416 -0.325
v -160 -416 -0.325
v -160 -384 -0.325
v -128 -384 -0.325
v -160 -416 -0.325
v -192 -416 -0.325
v -192 -384 -0.325
v -160 -384 -0.325
v -64 -448 -0.35
v -96 -448 -0.35
v -96 -416 -0.35
v -64 -416 -0.35
v -96 -448 -0.35
v -128 -448 -0.35
v -128 -416 -0.35
v -96 -416 -0.35
v -128 -448 -0.35
v -160 -448 -0.35
v -160 -416 -0.35
v -128 -416 -0.35
v -160 -448 -0.35
v -192 -448 -0.35
v -192 -416 -0.35
v -160 -416 -0.35
v -32 -480 -0.375
v -64 -480 -0.375
v -64 -448 -0.375
v -32 -448 -0.375
v -64 -480 -0.375
v -96 -480 -0.375
v -96 -448 -0.375
v -64 -448 -0.375
v -96 -480 -0.375
v -128 -480 -0.375
v -128 -448 -0.375
v -96 -448 -0.375
v -128 -480 -0.375
v -160 -480 -0.375
v -160 -448 -0.375
v -128 -448 -0.375
v -160 -480 -0.375
v -192 -480 -0.375
v -192 -448 -0.375
v -160 -448 -0.375
v -1248 -672 -0.525
v -1280 -672 -0.525
v -1280 -640 -0.525
v -1248 -640 -0.525
v -1280 -672 -0.525
v -1312 -672 -0.525
v -1312 -640 -0.525
v -1280 -640 -0.525
v -1280 -704 -0.55
v -1312 -704 -0.55
v -1312 -672 -0.55
v -1280 -672 -0.55
v -1248 -736 -0.575
v -1280 -736 -0.575
v -1280 -704 -0.575
v -1248 -704 -0.575
v -1280 -736 -0.575
v -1312 -736 -0.575
v -1312 -704 -0.575
v -1280 -704 -0.575
v -416 -1120 -0.875
v -448 -1120 -0.875
v -448 -1088 -0.875
v -416 -1088 -0.875
v -448 -1120 -0.875
v -480 -1120 -0.875
v -480 -1088 -0.875
v -448 -1088 -0.875
v -480 -1120 -0.875
v -512 -1120 -0.875
v -512 -1088 -0.875
v -480 -1088 -0.875
v -512 -1120 -0.875
v -544 -1120 -0.875
v -544 -1088 -0.875
v -512 -1088 -0.875
v -416 -1152 -0.9
v -448 -1152 -0.9
v -448 -1120 -0.9
v -416 -1120 -0.9
v -448 -1152 -0.9
v -480 -1152 -0.9
v -480 -1120 -0.9
v -448 -1120 -0.9
v -480 -1152 -0.9
v -512 -1152 -0.9
v -512 -1120 -0.9
v -480 -1120 -0.9
v -512 -1152 -0.9
v -544 -1152 -0.9
v -544 -1120 -0.9
v -512 -1120 -0.9
v -384 -1184 -0.925
v -416 -1184 -0.925
v -416 -1152 -0.925
v -384 -1152 -0.925
v -416 -1184 -0.925
v -448 -1184 -0.925
v -448 -1152 -0.925
v -416 -1152 -0.925
v -448 -1184 -0.925
v -480 -1184 -0.925
v -480 -1152 -0.925
v -448 -1152 -0.925
v -480 -1184 -0.925
v -512 -1184 -0.925
v -512 -1152 -0.925
v -480 -1152 -0.925
v -512 -1184 -0.925
v -544 -1184 -0.925
v -544 -1152 -0.925
v -512 -1152 -0.925

# Texture cooridinates (Count = 22)
vt 0.3333333 0.8333333
vt 0.375 0.8333333
vt 0.375 0.875
vt 0.3333333 0.875
vt 0.4166667 0.8333333
vt 0.4166667 0.875
vt 0.4583333 0.8333333
vt 0.4583333 0.875
vt 0.5 0.8333333
vt 0.5 0.875
vt 0.3333333 0.7916667
vt 0.375 0.7916667
vt 0.4166667 0.7916667
vt 0.4583333 0.7916667
vt 0.5 0.7916667
vt 0.2916667 0.75
vt 0.3333333 0.75
vt 0.2916667 0.7916667
vt 0.375 0.75
vt 0.4166667 0.75
vt 0.4583333 0.75
vt 0.5 0.75

# Normal
vn 0 0 -1

# Mesh description
g map1_mesh_0005

# Faces
f 1/1/1 2/2/1 3/3/1 4/4/1
f 5/2/1 6/5/1 7/6/1 8/3/1
f 9/5/1 10/7/1 11/8/1 12/6/1
f 13/7/1 14/9/1 15/10/1 16/8/1
f 17/11/1 18/12/1 19/2/1 20/1/1
f 21/12/1 22/13/1 23/5/1 24/2/1
f 25/13/1 26/14/1 27/7/1 28/5/1
f 29/14/1 30/15/1 31/9/1 32/7/1
f 33/16/1 34/17/1 35/11/1 36/18/1
f 37/17/1 38/19/1 39/12/1 40/11/1
f 41/19/1 42/20/1 43/13/1 44/12/1
f 45/20/1 46/21/1 47/14/1 48/13/1
f 49/21/1 50/22/1 51/15/1 52/14/1
f 53/1/1 54/2/1 55/3/1 56/4/1
f 57/2/1 58/5/1 59/6/1 60/3/1
f 61/5/1 62/7/1 63/8/1 64/6/1
f 65/7/1 66/9/1 67/10/1 68/8/1
f 69/11/1 70/12/1 71/2/1 72/1/1
f 73/12/1 74/13/1 75/5/1 76/2/1
f 77/13/1 78/14/1 79/7/1 80/5/1
f 81/14/1 82/15/1 83/9/1 84/7/1
f 85/16/1 86/17/1 87/11/1 88/18/1
f 89/17/1 90/19/1 91/12/1 92/11/1
f 93/19/1 94/20/1 95/13/1 96/12/1
f 97/20/1 98/21/1 99/14/1 100/13/1
f 101/21/1 102/22/1 103/15/1 104/14/1
f 105/5/1 106/7/1 107/8/1 108/6/1
f 109/7/1 110/9/1 111/10/1 112/8/1
f 113/14/1 114/15/1 115/9/1 116/7/1
f 117/20/1 118/21/1 119/14/1 120/13/1
f 121/21/1 122/22/1 123/15/1 124/14/1
f 125/1/1 126/2/1 127/3/1 128/4/1
f 129/2/1 130/5/1 131/6/1 132/3/1
f 133/5/1 134/7/1 135/8/1 136/6/1
f 137/7/1 138/9/1 139/10/1 140/8/1
f 141/11/1 142/12/1 143/2/1 144/1/1
f 145/12/1 146/13/1 147/5/1 148/2/1
f 149/13/1 150/14/1 151/7/1 152/5/1
f 153/14/1 154/15/1 155/9/1 156/7/1
f 157/16/1 158/17/1 159/11/1 160/18/1
f 161/17/1 162/19/1 163/12/1 164/11/1
f 165/19/1 166/20/1 167/13/1 168/12/1
f 169/20/1 170/21/1 171/14/1 172/13/1
f 173/21/1 174/22/1 175/15/1 176/14/1

