# Tiled2Unity generated file. Do not modify by hand.
# Wavefront file for 'map1_mesh_0004.obj'

# Vertices (Count = 768)
v -1472 -96 -0.075
v -1504 -96 -0.075
v -1504 -64 -0.075
v -1472 -64 -0.075
v -1504 -96 -0.075
v -1536 -96 -0.075
v -1536 -64 -0.075
v -1504 -64 -0.075
v -1536 -96 -0.075
v -1568 -96 -0.075
v -1568 -64 -0.075
v -1536 -64 -0.075
v -1568 -96 -0.075
v -1600 -96 -0.075
v -1600 -64 -0.075
v -1568 -64 -0.075
v -1600 -96 -0.075
v -1632 -96 -0.075
v -1632 -64 -0.075
v -1600 -64 -0.075
v -1632 -96 -0.075
v -1664 -96 -0.075
v -1664 -64 -0.075
v -1632 -64 -0.075
v -1664 -96 -0.075
v -1696 -96 -0.075
v -1696 -64 -0.075
v -1664 -64 -0.075
v -1472 -128 -0.1
v -1504 -128 -0.1
v -1504 -96 -0.1
v -1472 -96 -0.1
v -1504 -128 -0.1
v -1536 -128 -0.1
v -1536 -96 -0.1
v -1504 -96 -0.1
v -1536 -128 -0.1
v -1568 -128 -0.1
v -1568 -96 -0.1
v -1536 -96 -0.1
v -1568 -128 -0.1
v -1600 -128 -0.1
v -1600 -96 -0.1
v -1568 -96 -0.1
v -1600 -128 -0.1
v -1632 -128 -0.1
v -1632 -96 -0.1
v -1600 -96 -0.1
v -1632 -128 -0.1
v -1664 -128 -0.1
v -1664 -96 -0.1
v -1632 -96 -0.1
v -1664 -128 -0.1
v -1696 -128 -0.1
v -1696 -96 -0.1
v -1664 -96 -0.1
v -1472 -160 -0.125
v -1504 -160 -0.125
v -1504 -128 -0.125
v -1472 -128 -0.125
v -1504 -160 -0.125
v -1536 -160 -0.125
v -1536 -128 -0.125
v -1504 -128 -0.125
v -1536 -160 -0.125
v -1568 -160 -0.125
v -1568 -128 -0.125
v -1536 -128 -0.125
v -1568 -160 -0.125
v -1600 -160 -0.125
v -1600 -128 -0.125
v -1568 -128 -0.125
v -1600 -160 -0.125
v -1632 -160 -0.125
v -1632 -128 -0.125
v -1600 -128 -0.125
v -1632 -160 -0.125
v -1664 -160 -0.125
v -1664 -128 -0.125
v -1632 -128 -0.125
v -1664 -160 -0.125
v -1696 -160 -0.125
v -1696 -128 -0.125
v -1664 -128 -0.125
v -1472 -192 -0.15
v -1504 -192 -0.15
v -1504 -160 -0.15
v -1472 -160 -0.15
v -1504 -192 -0.15
v -1536 -192 -0.15
v -1536 -160 -0.15
v -1504 -160 -0.15
v -1536 -192 -0.15
v -1568 -192 -0.15
v -1568 -160 -0.15
v -1536 -160 -0.15
v -1568 -192 -0.15
v -1600 -192 -0.15
v -1600 -160 -0.15
v -1568 -160 -0.15
v -1600 -192 -0.15
v -1632 -192 -0.15
v -1632 -160 -0.15
v -1600 -160 -0.15
v -1632 -192 -0.15
v -1664 -192 -0.15
v -1664 -160 -0.15
v -1632 -160 -0.15
v -1664 -192 -0.15
v -1696 -192 -0.15
v -1696 -160 -0.15
v -1664 -160 -0.15
v -864 -352 -0.275
v -896 -352 -0.275
v -896 -320 -0.275
v -864 -320 -0.275
v -896 -352 -0.275
v -928 -352 -0.275
v -928 -320 -0.275
v -896 -320 -0.275
v -928 -352 -0.275
v -960 -352 -0.275
v -960 -320 -0.275
v -928 -320 -0.275
v -960 -352 -0.275
v -992 -352 -0.275
v -992 -320 -0.275
v -960 -320 -0.275
v -992 -352 -0.275
v -1024 -352 -0.275
v -1024 -320 -0.275
v -992 -320 -0.275
v -1024 -352 -0.275
v -1056 -352 -0.275
v -1056 -320 -0.275
v -1024 -320 -0.275
v -1056 -352 -0.275
v -1088 -352 -0.275
v -1088 -320 -0.275
v -1056 -320 -0.275
v -1088 -352 -0.275
v -1120 -352 -0.275
v -1120 -320 -0.275
v -1088 -320 -0.275
v -864 -384 -0.3
v -896 -384 -0.3
v -896 -352 -0.3
v -864 -352 -0.3
v -896 -384 -0.3
v -928 -384 -0.3
v -928 -352 -0.3
v -896 -352 -0.3
v -928 -384 -0.3
v -960 -384 -0.3
v -960 -352 -0.3
v -928 -352 -0.3
v -960 -384 -0.3
v -992 -384 -0.3
v -992 -352 -0.3
v -960 -352 -0.3
v -992 -384 -0.3
v -1024 -384 -0.3
v -1024 -352 -0.3
v -992 -352 -0.3
v -1024 -384 -0.3
v -1056 -384 -0.3
v -1056 -352 -0.3
v -1024 -352 -0.3
v -1056 -384 -0.3
v -1088 -384 -0.3
v -1088 -352 -0.3
v -1056 -352 -0.3
v -1088 -384 -0.3
v -1120 -384 -0.3
v -1120 -352 -0.3
v -1088 -352 -0.3
v -864 -416 -0.325
v -896 -416 -0.325
v -896 -384 -0.325
v -864 -384 -0.325
v -896 -416 -0.325
v -928 -416 -0.325
v -928 -384 -0.325
v -896 -384 -0.325
v -928 -416 -0.325
v -960 -416 -0.325
v -960 -384 -0.325
v -928 -384 -0.325
v -960 -416 -0.325
v -992 -416 -0.325
v -992 -384 -0.325
v -960 -384 -0.325
v -992 -416 -0.325
v -1024 -416 -0.325
v -1024 -384 -0.325
v -992 -384 -0.325
v -1024 -416 -0.325
v -1056 -416 -0.325
v -1056 -384 -0.325
v -1024 -384 -0.325
v -1056 -416 -0.325
v -1088 -416 -0.325
v -1088 -384 -0.325
v -1056 -384 -0.325
v -1088 -416 -0.325
v -1120 -416 -0.325
v -1120 -384 -0.325
v -1088 -384 -0.325
v -864 -448 -0.35
v -896 -448 -0.35
v -896 -416 -0.35
v -864 -416 -0.35
v -896 -448 -0.35
v -928 -448 -0.35
v -928 -416 -0.35
v -896 -416 -0.35
v -928 -448 -0.35
v -960 -448 -0.35
v -960 -416 -0.35
v -928 -416 -0.35
v -960 -448 -0.35
v -992 -448 -0.35
v -992 -416 -0.35
v -960 -416 -0.35
v -992 -448 -0.35
v -1024 -448 -0.35
v -1024 -416 -0.35
v -992 -416 -0.35
v -1024 -448 -0.35
v -1056 -448 -0.35
v -1056 -416 -0.35
v -1024 -416 -0.35
v -1056 -448 -0.35
v -1088 -448 -0.35
v -1088 -416 -0.35
v -1056 -416 -0.35
v -1088 -448 -0.35
v -1120 -448 -0.35
v -1120 -416 -0.35
v -1088 -416 -0.35
v -864 -480 -0.375
v -896 -480 -0.375
v -896 -448 -0.375
v -864 -448 -0.375
v -896 -480 -0.375
v -928 -480 -0.375
v -928 -448 -0.375
v -896 -448 -0.375
v -928 -480 -0.375
v -960 -480 -0.375
v -960 -448 -0.375
v -928 -448 -0.375
v -960 -480 -0.375
v -992 -480 -0.375
v -992 -448 -0.375
v -960 -448 -0.375
v -992 -480 -0.375
v -1024 -480 -0.375
v -1024 -448 -0.375
v -992 -448 -0.375
v -1024 -480 -0.375
v -1056 -480 -0.375
v -1056 -448 -0.375
v -1024 -448 -0.375
v -1056 -480 -0.375
v -1088 -480 -0.375
v -1088 -448 -0.375
v -1056 -448 -0.375
v -1088 -480 -0.375
v -1120 -480 -0.375
v -1120 -448 -0.375
v -1088 -448 -0.375
v -608 -704 -0.55
v -640 -704 -0.55
v -640 -672 -0.55
v -608 -672 -0.55
v -640 -704 -0.55
v -672 -704 -0.55
v -672 -672 -0.55
v -640 -672 -0.55
v -672 -704 -0.55
v -704 -704 -0.55
v -704 -672 -0.55
v -672 -672 -0.55
v -704 -704 -0.55
v -736 -704 -0.55
v -736 -672 -0.55
v -704 -672 -0.55
v -736 -704 -0.55
v -768 -704 -0.55
v -768 -672 -0.55
v -736 -672 -0.55
v -768 -704 -0.55
v -800 -704 -0.55
v -800 -672 -0.55
v -768 -672 -0.55
v -800 -704 -0.55
v -832 -704 -0.55
v -832 -672 -0.55
v -800 -672 -0.55
v -832 -704 -0.55
v -864 -704 -0.55
v -864 -672 -0.55
v -832 -672 -0.55
v -608 -736 -0.575
v -640 -736 -0.575
v -640 -704 -0.575
v -608 -704 -0.575
v -640 -736 -0.575
v -672 -736 -0.575
v -672 -704 -0.575
v -640 -704 -0.575
v -672 -736 -0.575
v -704 -736 -0.575
v -704 -704 -0.575
v -672 -704 -0.575
v -704 -736 -0.575
v -736 -736 -0.575
v -736 -704 -0.575
v -704 -704 -0.575
v -736 -736 -0.575
v -768 -736 -0.575
v -768 -704 -0.575
v -736 -704 -0.575
v -768 -736 -0.575
v -800 -736 -0.575
v -800 -704 -0.575
v -768 -704 -0.575
v -800 -736 -0.575
v -832 -736 -0.575
v -832 -704 -0.575
v -800 -704 -0.575
v -832 -736 -0.575
v -864 -736 -0.575
v -864 -704 -0.575
v -832 -704 -0.575
v -608 -768 -0.6
v -640 -768 -0.6
v -640 -736 -0.6
v -608 -736 -0.6
v -640 -768 -0.6
v -672 -768 -0.6
v -672 -736 -0.6
v -640 -736 -0.6
v -672 -768 -0.6
v -704 -768 -0.6
v -704 -736 -0.6
v -672 -736 -0.6
v -704 -768 -0.6
v -736 -768 -0.6
v -736 -736 -0.6
v -704 -736 -0.6
v -736 -768 -0.6
v -768 -768 -0.6
v -768 -736 -0.6
v -736 -736 -0.6
v -768 -768 -0.6
v -800 -768 -0.6
v -800 -736 -0.6
v -768 -736 -0.6
v -800 -768 -0.6
v -832 -768 -0.6
v -832 -736 -0.6
v -800 -736 -0.6
v -832 -768 -0.6
v -864 -768 -0.6
v -864 -736 -0.6
v -832 -736 -0.6
v -608 -800 -0.625
v -640 -800 -0.625
v -640 -768 -0.625
v -608 -768 -0.625
v -640 -800 -0.625
v -672 -800 -0.625
v -672 -768 -0.625
v -640 -768 -0.625
v -672 -800 -0.625
v -704 -800 -0.625
v -704 -768 -0.625
v -672 -768 -0.625
v -704 -800 -0.625
v -736 -800 -0.625
v -736 -768 -0.625
v -704 -768 -0.625
v -736 -800 -0.625
v -768 -800 -0.625
v -768 -768 -0.625
v -736 -768 -0.625
v -768 -800 -0.625
v -800 -800 -0.625
v -800 -768 -0.625
v -768 -768 -0.625
v -800 -800 -0.625
v -832 -800 -0.625
v -832 -768 -0.625
v -800 -768 -0.625
v -832 -800 -0.625
v -864 -800 -0.625
v -864 -768 -0.625
v -832 -768 -0.625
v -1568 -800 -0.625
v -1600 -800 -0.625
v -1600 -768 -0.625
v -1568 -768 -0.625
v -1600 -800 -0.625
v -1632 -800 -0.625
v -1632 -768 -0.625
v -1600 -768 -0.625
v -1632 -800 -0.625
v -1664 -800 -0.625
v -1664 -768 -0.625
v -1632 -768 -0.625
v -1664 -800 -0.625
v -1696 -800 -0.625
v -1696 -768 -0.625
v -1664 -768 -0.625
v -1696 -800 -0.625
v -1728 -800 -0.625
v -1728 -768 -0.625
v -1696 -768 -0.625
v -1728 -800 -0.625
v -1760 -800 -0.625
v -1760 -768 -0.625
v -1728 -768 -0.625
v -1760 -800 -0.625
v -1792 -800 -0.625
v -1792 -768 -0.625
v -1760 -768 -0.625
v -1792 -800 -0.625
v -1824 -800 -0.625
v -1824 -768 -0.625
v -1792 -768 -0.625
v -1824 -800 -0.625
v -1856 -800 -0.625
v -1856 -768 -0.625
v -1824 -768 -0.625
v -1856 -800 -0.625
v -1888 -800 -0.625
v -1888 -768 -0.625
v -1856 -768 -0.625
v -1888 -800 -0.625
v -1920 -800 -0.625
v -1920 -768 -0.625
v -1888 -768 -0.625
v -608 -832 -0.65
v -640 -832 -0.65
v -640 -800 -0.65
v -608 -800 -0.65
v -640 -832 -0.65
v -672 -832 -0.65
v -672 -800 -0.65
v -640 -800 -0.65
v -672 -832 -0.65
v -704 -832 -0.65
v -704 -800 -0.65
v -672 -800 -0.65
v -704 -832 -0.65
v -736 -832 -0.65
v -736 -800 -0.65
v -704 -800 -0.65
v -736 -832 -0.65
v -768 -832 -0.65
v -768 -800 -0.65
v -736 -800 -0.65
v -768 -832 -0.65
v -800 -832 -0.65
v -800 -800 -0.65
v -768 -800 -0.65
v -800 -832 -0.65
v -832 -832 -0.65
v -832 -800 -0.65
v -800 -800 -0.65
v -832 -832 -0.65
v -864 -832 -0.65
v -864 -800 -0.65
v -832 -800 -0.65
v -1568 -832 -0.65
v -1600 -832 -0.65
v -1600 -800 -0.65
v -1568 -800 -0.65
v -1600 -832 -0.65
v -1632 -832 -0.65
v -1632 -800 -0.65
v -1600 -800 -0.65
v -1632 -832 -0.65
v -1664 -832 -0.65
v -1664 -800 -0.65
v -1632 -800 -0.65
v -1664 -832 -0.65
v -1696 -832 -0.65
v -1696 -800 -0.65
v -1664 -800 -0.65
v -1696 -832 -0.65
v -1728 -832 -0.65
v -1728 -800 -0.65
v -1696 -800 -0.65
v -1728 -832 -0.65
v -1760 -832 -0.65
v -1760 -800 -0.65
v -1728 -800 -0.65
v -1760 -832 -0.65
v -1792 -832 -0.65
v -1792 -800 -0.65
v -1760 -800 -0.65
v -1792 -832 -0.65
v -1824 -832 -0.65
v -1824 -800 -0.65
v -1792 -800 -0.65
v -1824 -832 -0.65
v -1856 -832 -0.65
v -1856 -800 -0.65
v -1824 -800 -0.65
v -1856 -832 -0.65
v -1888 -832 -0.65
v -1888 -800 -0.65
v -1856 -800 -0.65
v -1888 -832 -0.65
v -1920 -832 -0.65
v -1920 -800 -0.65
v -1888 -800 -0.65
v -1568 -864 -0.675
v -1600 -864 -0.675
v -1600 -832 -0.675
v -1568 -832 -0.675
v -1600 -864 -0.675
v -1632 -864 -0.675
v -1632 -832 -0.675
v -1600 -832 -0.675
v -1632 -864 -0.675
v -1664 -864 -0.675
v -1664 -832 -0.675
v -1632 -832 -0.675
v -1664 -864 -0.675
v -1696 -864 -0.675
v -1696 -832 -0.675
v -1664 -832 -0.675
v -1696 -864 -0.675
v -1728 -864 -0.675
v -1728 -832 -0.675
v -1696 -832 -0.675
v -1728 -864 -0.675
v -1760 -864 -0.675
v -1760 -832 -0.675
v -1728 -832 -0.675
v -1760 -864 -0.675
v -1792 -864 -0.675
v -1792 -832 -0.675
v -1760 -832 -0.675
v -1792 -864 -0.675
v -1824 -864 -0.675
v -1824 -832 -0.675
v -1792 -832 -0.675
v -1824 -864 -0.675
v -1856 -864 -0.675
v -1856 -832 -0.675
v -1824 -832 -0.675
v -1856 -864 -0.675
v -1888 -864 -0.675
v -1888 -832 -0.675
v -1856 -832 -0.675
v -1888 -864 -0.675
v -1920 -864 -0.675
v -1920 -832 -0.675
v -1888 -832 -0.675
v -1568 -896 -0.7
v -1600 -896 -0.7
v -1600 -864 -0.7
v -1568 -864 -0.7
v -1600 -896 -0.7
v -1632 -896 -0.7
v -1632 -864 -0.7
v -1600 -864 -0.7
v -1632 -896 -0.7
v -1664 -896 -0.7
v -1664 -864 -0.7
v -1632 -864 -0.7
v -1664 -896 -0.7
v -1696 -896 -0.7
v -1696 -864 -0.7
v -1664 -864 -0.7
v -1696 -896 -0.7
v -1728 -896 -0.7
v -1728 -864 -0.7
v -1696 -864 -0.7
v -1728 -896 -0.7
v -1760 -896 -0.7
v -1760 -864 -0.7
v -1728 -864 -0.7
v -1760 -896 -0.7
v -1792 -896 -0.7
v -1792 -864 -0.7
v -1760 -864 -0.7
v -1792 -896 -0.7
v -1824 -896 -0.7
v -1824 -864 -0.7
v -1792 -864 -0.7
v -1824 -896 -0.7
v -1856 -896 -0.7
v -1856 -864 -0.7
v -1824 -864 -0.7
v -1856 -896 -0.7
v -1888 -896 -0.7
v -1888 -864 -0.7
v -1856 -864 -0.7
v -1888 -896 -0.7
v -1920 -896 -0.7
v -1920 -864 -0.7
v -1888 -864 -0.7
v -1408 -1056 -0.825
v -1440 -1056 -0.825
v -1440 -1024 -0.825
v -1408 -1024 -0.825
v -1440 -1056 -0.825
v -1472 -1056 -0.825
v -1472 -1024 -0.825
v -1440 -1024 -0.825
v -1472 -1056 -0.825
v -1504 -1056 -0.825
v -1504 -1024 -0.825
v -1472 -1024 -0.825
v -1504 -1056 -0.825
v -1536 -1056 -0.825
v -1536 -1024 -0.825
v -1504 -1024 -0.825
v -1536 -1056 -0.825
v -1568 -1056 -0.825
v -1568 -1024 -0.825
v -1536 -1024 -0.825
v -1568 -1056 -0.825
v -1600 -1056 -0.825
v -1600 -1024 -0.825
v -1568 -1024 -0.825
v -1600 -1056 -0.825
v -1632 -1056 -0.825
v -1632 -1024 -0.825
v -1600 -1024 -0.825
v -1632 -1056 -0.825
v -1664 -1056 -0.825
v -1664 -1024 -0.825
v -1632 -1024 -0.825
v -1408 -1088 -0.85
v -1440 -1088 -0.85
v -1440 -1056 -0.85
v -1408 -1056 -0.85
v -1440 -1088 -0.85
v -1472 -1088 -0.85
v -1472 -1056 -0.85
v -1440 -1056 -0.85
v -1472 -1088 -0.85
v -1504 -1088 -0.85
v -1504 -1056 -0.85
v -1472 -1056 -0.85
v -1504 -1088 -0.85
v -1536 -1088 -0.85
v -1536 -1056 -0.85
v -1504 -1056 -0.85
v -1536 -1088 -0.85
v -1568 -1088 -0.85
v -1568 -1056 -0.85
v -1536 -1056 -0.85
v -1568 -1088 -0.85
v -1600 -1088 -0.85
v -1600 -1056 -0.85
v -1568 -1056 -0.85
v -1600 -1088 -0.85
v -1632 -1088 -0.85
v -1632 -1056 -0.85
v -1600 -1056 -0.85
v -1632 -1088 -0.85
v -1664 -1088 -0.85
v -1664 -1056 -0.85
v -1632 -1056 -0.85
v -1408 -1120 -0.875
v -1440 -1120 -0.875
v -1440 -1088 -0.875
v -1408 -1088 -0.875
v -1440 -1120 -0.875
v -1472 -1120 -0.875
v -1472 -1088 -0.875
v -1440 -1088 -0.875
v -1472 -1120 -0.875
v -1504 -1120 -0.875
v -1504 -1088 -0.875
v -1472 -1088 -0.875
v -1504 -1120 -0.875
v -1536 -1120 -0.875
v -1536 -1088 -0.875
v -1504 -1088 -0.875
v -1536 -1120 -0.875
v -1568 -1120 -0.875
v -1568 -1088 -0.875
v -1536 -1088 -0.875
v -1568 -1120 -0.875
v -1600 -1120 -0.875
v -1600 -1088 -0.875
v -1568 -1088 -0.875
v -1600 -1120 -0.875
v -1632 -1120 -0.875
v -1632 -1088 -0.875
v -1600 -1088 -0.875
v -1632 -1120 -0.875
v -1664 -1120 -0.875
v -1664 -1088 -0.875
v -1632 -1088 -0.875
v -1408 -1152 -0.9
v -1440 -1152 -0.9
v -1440 -1120 -0.9
v -1408 -1120 -0.9
v -1440 -1152 -0.9
v -1472 -1152 -0.9
v -1472 -1120 -0.9
v -1440 -1120 -0.9
v -1472 -1152 -0.9
v -1504 -1152 -0.9
v -1504 -1120 -0.9
v -1472 -1120 -0.9
v -1504 -1152 -0.9
v -1536 -1152 -0.9
v -1536 -1120 -0.9
v -1504 -1120 -0.9
v -1536 -1152 -0.9
v -1568 -1152 -0.9
v -1568 -1120 -0.9
v -1536 -1120 -0.9
v -1568 -1152 -0.9
v -1600 -1152 -0.9
v -1600 -1120 -0.9
v -1568 -1120 -0.9
v -1600 -1152 -0.9
v -1632 -1152 -0.9
v -1632 -1120 -0.9
v -1600 -1120 -0.9
v -1632 -1152 -0.9
v -1664 -1152 -0.9
v -1664 -1120 -0.9
v -1632 -1120 -0.9
v -1408 -1184 -0.925
v -1440 -1184 -0.925
v -1440 -1152 -0.925
v -1408 -1152 -0.925
v -1440 -1184 -0.925
v -1472 -1184 -0.925
v -1472 -1152 -0.925
v -1440 -1152 -0.925
v -1472 -1184 -0.925
v -1504 -1184 -0.925
v -1504 -1152 -0.925
v -1472 -1152 -0.925
v -1504 -1184 -0.925
v -1536 -1184 -0.925
v -1536 -1152 -0.925
v -1504 -1152 -0.925
v -1536 -1184 -0.925
v -1568 -1184 -0.925
v -1568 -1152 -0.925
v -1536 -1152 -0.925
v -1568 -1184 -0.925
v -1600 -1184 -0.925
v -1600 -1152 -0.925
v -1568 -1152 -0.925
v -1600 -1184 -0.925
v -1632 -1184 -0.925
v -1632 -1152 -0.925
v -1600 -1152 -0.925
v -1632 -1184 -0.925
v -1664 -1184 -0.925
v -1664 -1152 -0.925
v -1632 -1152 -0.925

# Texture cooridinates (Count = 54)
vt 0.7083333 0.9583333
vt 0.75 0.9583333
vt 0.75 1
vt 0.7083333 1
vt 0.7916667 0.9583333
vt 0.7916667 1
vt 0.8333333 0.9583333
vt 0.8333333 1
vt 0.875 0.9583333
vt 0.875 1
vt 0.9166667 0.9583333
vt 0.9166667 1
vt 0.9583333 0.9583333
vt 0.9583333 1
vt 1 0.9583333
vt 1 1
vt 0.7083333 0.9166667
vt 0.75 0.9166667
vt 0.7916667 0.9166667
vt 0.8333333 0.9166667
vt 0.875 0.9166667
vt 0.9166667 0.9166667
vt 0.9583333 0.9166667
vt 1 0.9166667
vt 0.7083333 0.875
vt 0.75 0.875
vt 0.7916667 0.875
vt 0.8333333 0.875
vt 0.875 0.875
vt 0.9166667 0.875
vt 0.9583333 0.875
vt 1 0.875
vt 0.7083333 0.8333333
vt 0.75 0.8333333
vt 0.7916667 0.8333333
vt 0.8333333 0.8333333
vt 0.875 0.8333333
vt 0.9166667 0.8333333
vt 0.9583333 0.8333333
vt 1 0.8333333
vt 0.6666667 0.9583333
vt 0.6666667 1
vt 0.6666667 0.9166667
vt 0.6666667 0.875
vt 0.6666667 0.8333333
vt 0.6666667 0.7916667
vt 0.7083333 0.7916667
vt 0.75 0.7916667
vt 0.7916667 0.7916667
vt 0.8333333 0.7916667
vt 0.875 0.7916667
vt 0.9166667 0.7916667
vt 0.9583333 0.7916667
vt 1 0.7916667

# Normal
vn 0 0 -1

# Mesh description
g map1_mesh_0004

# Faces
f 1/1/1 2/2/1 3/3/1 4/4/1
f 5/2/1 6/5/1 7/6/1 8/3/1
f 9/5/1 10/7/1 11/8/1 12/6/1
f 13/7/1 14/9/1 15/10/1 16/8/1
f 17/9/1 18/11/1 19/12/1 20/10/1
f 21/11/1 22/13/1 23/14/1 24/12/1
f 25/13/1 26/15/1 27/16/1 28/14/1
f 29/17/1 30/18/1 31/2/1 32/1/1
f 33/18/1 34/19/1 35/5/1 36/2/1
f 37/19/1 38/20/1 39/7/1 40/5/1
f 41/20/1 42/21/1 43/9/1 44/7/1
f 45/21/1 46/22/1 47/11/1 48/9/1
f 49/22/1 50/23/1 51/13/1 52/11/1
f 53/23/1 54/24/1 55/15/1 56/13/1
f 57/25/1 58/26/1 59/18/1 60/17/1
f 61/26/1 62/27/1 63/19/1 64/18/1
f 65/27/1 66/28/1 67/20/1 68/19/1
f 69/28/1 70/29/1 71/21/1 72/20/1
f 73/29/1 74/30/1 75/22/1 76/21/1
f 77/30/1 78/31/1 79/23/1 80/22/1
f 81/31/1 82/32/1 83/24/1 84/23/1
f 85/33/1 86/34/1 87/26/1 88/25/1
f 89/34/1 90/35/1 91/27/1 92/26/1
f 93/35/1 94/36/1 95/28/1 96/27/1
f 97/36/1 98/37/1 99/29/1 100/28/1
f 101/37/1 102/38/1 103/30/1 104/29/1
f 105/38/1 106/39/1 107/31/1 108/30/1
f 109/39/1 110/40/1 111/32/1 112/31/1
f 113/41/1 114/1/1 115/4/1 116/42/1
f 117/1/1 118/2/1 119/3/1 120/4/1
f 121/2/1 122/5/1 123/6/1 124/3/1
f 125/5/1 126/7/1 127/8/1 128/6/1
f 129/7/1 130/9/1 131/10/1 132/8/1
f 133/9/1 134/11/1 135/12/1 136/10/1
f 137/11/1 138/13/1 139/14/1 140/12/1
f 141/13/1 142/15/1 143/16/1 144/14/1
f 145/43/1 146/17/1 147/1/1 148/41/1
f 149/17/1 150/18/1 151/2/1 152/1/1
f 153/18/1 154/19/1 155/5/1 156/2/1
f 157/19/1 158/20/1 159/7/1 160/5/1
f 161/20/1 162/21/1 163/9/1 164/7/1
f 165/21/1 166/22/1 167/11/1 168/9/1
f 169/22/1 170/23/1 171/13/1 172/11/1
f 173/23/1 174/24/1 175/15/1 176/13/1
f 177/44/1 178/25/1 179/17/1 180/43/1
f 181/25/1 182/26/1 183/18/1 184/17/1
f 185/26/1 186/27/1 187/19/1 188/18/1
f 189/27/1 190/28/1 191/20/1 192/19/1
f 193/28/1 194/29/1 195/21/1 196/20/1
f 197/29/1 198/30/1 199/22/1 200/21/1
f 201/30/1 202/31/1 203/23/1 204/22/1
f 205/31/1 206/32/1 207/24/1 208/23/1
f 209/45/1 210/33/1 211/25/1 212/44/1
f 213/33/1 214/34/1 215/26/1 216/25/1
f 217/34/1 218/35/1 219/27/1 220/26/1
f 221/35/1 222/36/1 223/28/1 224/27/1
f 225/36/1 226/37/1 227/29/1 228/28/1
f 229/37/1 230/38/1 231/30/1 232/29/1
f 233/38/1 234/39/1 235/31/1 236/30/1
f 237/39/1 238/40/1 239/32/1 240/31/1
f 241/46/1 242/47/1 243/33/1 244/45/1
f 245/47/1 246/48/1 247/34/1 248/33/1
f 249/48/1 250/49/1 251/35/1 252/34/1
f 253/49/1 254/50/1 255/36/1 256/35/1
f 257/50/1 258/51/1 259/37/1 260/36/1
f 261/51/1 262/52/1 263/38/1 264/37/1
f 265/52/1 266/53/1 267/39/1 268/38/1
f 269/53/1 270/54/1 271/40/1 272/39/1
f 273/41/1 274/1/1 275/4/1 276/42/1
f 277/1/1 278/2/1 279/3/1 280/4/1
f 281/2/1 282/5/1 283/6/1 284/3/1
f 285/5/1 286/7/1 287/8/1 288/6/1
f 289/7/1 290/9/1 291/10/1 292/8/1
f 293/9/1 294/11/1 295/12/1 296/10/1
f 297/11/1 298/13/1 299/14/1 300/12/1
f 301/13/1 302/15/1 303/16/1 304/14/1
f 305/43/1 306/17/1 307/1/1 308/41/1
f 309/17/1 310/18/1 311/2/1 312/1/1
f 313/18/1 314/19/1 315/5/1 316/2/1
f 317/19/1 318/20/1 319/7/1 320/5/1
f 321/20/1 322/21/1 323/9/1 324/7/1
f 325/21/1 326/22/1 327/11/1 328/9/1
f 329/22/1 330/23/1 331/13/1 332/11/1
f 333/23/1 334/24/1 335/15/1 336/13/1
f 337/44/1 338/25/1 339/17/1 340/43/1
f 341/25/1 342/26/1 343/18/1 344/17/1
f 345/26/1 346/27/1 347/19/1 348/18/1
f 349/27/1 350/28/1 351/20/1 352/19/1
f 353/28/1 354/29/1 355/21/1 356/20/1
f 357/29/1 358/30/1 359/22/1 360/21/1
f 361/30/1 362/31/1 363/23/1 364/22/1
f 365/31/1 366/32/1 367/24/1 368/23/1
f 369/45/1 370/33/1 371/25/1 372/44/1
f 373/33/1 374/34/1 375/26/1 376/25/1
f 377/34/1 378/35/1 379/27/1 380/26/1
f 381/35/1 382/36/1 383/28/1 384/27/1
f 385/36/1 386/37/1 387/29/1 388/28/1
f 389/37/1 390/38/1 391/30/1 392/29/1
f 393/38/1 394/39/1 395/31/1 396/30/1
f 397/39/1 398/40/1 399/32/1 400/31/1
f 401/41/1 402/1/1 403/4/1 404/42/1
f 405/1/1 406/2/1 407/3/1 408/4/1
f 409/2/1 410/5/1 411/6/1 412/3/1
f 413/5/1 414/7/1 415/8/1 416/6/1
f 417/7/1 418/9/1 419/10/1 420/8/1
f 421/2/1 422/5/1 423/6/1 424/3/1
f 425/5/1 426/7/1 427/8/1 428/6/1
f 429/7/1 430/9/1 431/10/1 432/8/1
f 433/9/1 434/11/1 435/12/1 436/10/1
f 437/11/1 438/13/1 439/14/1 440/12/1
f 441/13/1 442/15/1 443/16/1 444/14/1
f 445/46/1 446/47/1 447/33/1 448/45/1
f 449/47/1 450/48/1 451/34/1 452/33/1
f 453/48/1 454/49/1 455/35/1 456/34/1
f 457/49/1 458/50/1 459/36/1 460/35/1
f 461/50/1 462/51/1 463/37/1 464/36/1
f 465/51/1 466/52/1 467/38/1 468/37/1
f 469/52/1 470/53/1 471/39/1 472/38/1
f 473/53/1 474/54/1 475/40/1 476/39/1
f 477/43/1 478/17/1 479/1/1 480/41/1
f 481/17/1 482/18/1 483/2/1 484/1/1
f 485/18/1 486/19/1 487/5/1 488/2/1
f 489/19/1 490/20/1 491/7/1 492/5/1
f 493/20/1 494/21/1 495/9/1 496/7/1
f 497/18/1 498/19/1 499/5/1 500/2/1
f 501/19/1 502/20/1 503/7/1 504/5/1
f 505/20/1 506/21/1 507/9/1 508/7/1
f 509/21/1 510/22/1 511/11/1 512/9/1
f 513/22/1 514/23/1 515/13/1 516/11/1
f 517/23/1 518/24/1 519/15/1 520/13/1
f 521/44/1 522/25/1 523/17/1 524/43/1
f 525/25/1 526/26/1 527/18/1 528/17/1
f 529/26/1 530/27/1 531/19/1 532/18/1
f 533/27/1 534/28/1 535/20/1 536/19/1
f 537/28/1 538/29/1 539/21/1 540/20/1
f 541/26/1 542/27/1 543/19/1 544/18/1
f 545/27/1 546/28/1 547/20/1 548/19/1
f 549/28/1 550/29/1 551/21/1 552/20/1
f 553/29/1 554/30/1 555/22/1 556/21/1
f 557/30/1 558/31/1 559/23/1 560/22/1
f 561/31/1 562/32/1 563/24/1 564/23/1
f 565/45/1 566/33/1 567/25/1 568/44/1
f 569/33/1 570/34/1 571/26/1 572/25/1
f 573/34/1 574/35/1 575/27/1 576/26/1
f 577/35/1 578/36/1 579/28/1 580/27/1
f 581/36/1 582/37/1 583/29/1 584/28/1
f 585/34/1 586/35/1 587/27/1 588/26/1
f 589/35/1 590/36/1 591/28/1 592/27/1
f 593/36/1 594/37/1 595/29/1 596/28/1
f 597/37/1 598/38/1 599/30/1 600/29/1
f 601/38/1 602/39/1 603/31/1 604/30/1
f 605/39/1 606/40/1 607/32/1 608/31/1
f 609/41/1 610/1/1 611/4/1 612/42/1
f 613/1/1 614/2/1 615/3/1 616/4/1
f 617/2/1 618/5/1 619/6/1 620/3/1
f 621/5/1 622/7/1 623/8/1 624/6/1
f 625/7/1 626/9/1 627/10/1 628/8/1
f 629/9/1 630/11/1 631/12/1 632/10/1
f 633/11/1 634/13/1 635/14/1 636/12/1
f 637/13/1 638/15/1 639/16/1 640/14/1
f 641/43/1 642/17/1 643/1/1 644/41/1
f 645/17/1 646/18/1 647/2/1 648/1/1
f 649/18/1 650/19/1 651/5/1 652/2/1
f 653/19/1 654/20/1 655/7/1 656/5/1
f 657/20/1 658/21/1 659/9/1 660/7/1
f 661/21/1 662/22/1 663/11/1 664/9/1
f 665/22/1 666/23/1 667/13/1 668/11/1
f 669/23/1 670/24/1 671/15/1 672/13/1
f 673/44/1 674/25/1 675/17/1 676/43/1
f 677/25/1 678/26/1 679/18/1 680/17/1
f 681/26/1 682/27/1 683/19/1 684/18/1
f 685/27/1 686/28/1 687/20/1 688/19/1
f 689/28/1 690/29/1 691/21/1 692/20/1
f 693/29/1 694/30/1 695/22/1 696/21/1
f 697/30/1 698/31/1 699/23/1 700/22/1
f 701/31/1 702/32/1 703/24/1 704/23/1
f 705/45/1 706/33/1 707/25/1 708/44/1
f 709/33/1 710/34/1 711/26/1 712/25/1
f 713/34/1 714/35/1 715/27/1 716/26/1
f 717/35/1 718/36/1 719/28/1 720/27/1
f 721/36/1 722/37/1 723/29/1 724/28/1
f 725/37/1 726/38/1 727/30/1 728/29/1
f 729/38/1 730/39/1 731/31/1 732/30/1
f 733/39/1 734/40/1 735/32/1 736/31/1
f 737/46/1 738/47/1 739/33/1 740/45/1
f 741/47/1 742/48/1 743/34/1 744/33/1
f 745/48/1 746/49/1 747/35/1 748/34/1
f 749/49/1 750/50/1 751/36/1 752/35/1
f 753/50/1 754/51/1 755/37/1 756/36/1
f 757/51/1 758/52/1 759/38/1 760/37/1
f 761/52/1 762/53/1 763/39/1 764/38/1
f 765/53/1 766/54/1 767/40/1 768/39/1

