# Tiled2Unity generated file. Do not modify by hand.
# Wavefront file for 'gameMap_mesh_0003.obj'

# Vertices (Count = 264)
v -160 -32 -0.025
v -192 -32 -0.025
v -192 0 -0.025
v -160 0 -0.025
v -192 -32 -0.025
v -224 -32 -0.025
v -224 0 -0.025
v -192 0 -0.025
v -224 -32 -0.025
v -256 -32 -0.025
v -256 0 -0.025
v -224 0 -0.025
v -256 -32 -0.025
v -288 -32 -0.025
v -288 0 -0.025
v -256 0 -0.025
v -288 -32 -0.025
v -320 -32 -0.025
v -320 0 -0.025
v -288 0 -0.025
v -384 -32 -0.025
v -416 -32 -0.025
v -416 0 -0.025
v -384 0 -0.025
v -416 -32 -0.025
v -448 -32 -0.025
v -448 0 -0.025
v -416 0 -0.025
v -448 -32 -0.025
v -480 -32 -0.025
v -480 0 -0.025
v -448 0 -0.025
v -480 -32 -0.025
v -512 -32 -0.025
v -512 0 -0.025
v -480 0 -0.025
v -512 -32 -0.025
v -544 -32 -0.025
v -544 0 -0.025
v -512 0 -0.025
v -544 -32 -0.025
v -576 -32 -0.025
v -576 0 -0.025
v -544 0 -0.025
v -576 -32 -0.025
v -608 -32 -0.025
v -608 0 -0.025
v -576 0 -0.025
v -608 -32 -0.025
v -640 -32 -0.025
v -640 0 -0.025
v -608 0 -0.025
v -1824 -32 -0.025
v -1856 -32 -0.025
v -1856 0 -0.025
v -1824 0 -0.025
v -160 -64 -0.05
v -192 -64 -0.05
v -192 -32 -0.05
v -160 -32 -0.05
v -192 -64 -0.05
v -224 -64 -0.05
v -224 -32 -0.05
v -192 -32 -0.05
v -224 -64 -0.05
v -256 -64 -0.05
v -256 -32 -0.05
v -224 -32 -0.05
v -256 -64 -0.05
v -288 -64 -0.05
v -288 -32 -0.05
v -256 -32 -0.05
v -288 -64 -0.05
v -320 -64 -0.05
v -320 -32 -0.05
v -288 -32 -0.05
v -320 -64 -0.05
v -352 -64 -0.05
v -352 -32 -0.05
v -320 -32 -0.05
v -352 -64 -0.05
v -384 -64 -0.05
v -384 -32 -0.05
v -352 -32 -0.05
v -384 -64 -0.05
v -416 -64 -0.05
v -416 -32 -0.05
v -384 -32 -0.05
v -416 -64 -0.05
v -448 -64 -0.05
v -448 -32 -0.05
v -416 -32 -0.05
v -448 -64 -0.05
v -480 -64 -0.05
v -480 -32 -0.05
v -448 -32 -0.05
v -480 -64 -0.05
v -512 -64 -0.05
v -512 -32 -0.05
v -480 -32 -0.05
v -512 -64 -0.05
v -544 -64 -0.05
v -544 -32 -0.05
v -512 -32 -0.05
v -544 -64 -0.05
v -576 -64 -0.05
v -576 -32 -0.05
v -544 -32 -0.05
v -576 -64 -0.05
v -608 -64 -0.05
v -608 -32 -0.05
v -576 -32 -0.05
v -1792 -64 -0.05
v -1824 -64 -0.05
v -1824 -32 -0.05
v -1792 -32 -0.05
v -1824 -64 -0.05
v -1856 -64 -0.05
v -1856 -32 -0.05
v -1824 -32 -0.05
v -256 -96 -0.075
v -288 -96 -0.075
v -288 -64 -0.075
v -256 -64 -0.075
v -288 -96 -0.075
v -320 -96 -0.075
v -320 -64 -0.075
v -288 -64 -0.075
v -320 -96 -0.075
v -352 -96 -0.075
v -352 -64 -0.075
v -320 -64 -0.075
v -352 -96 -0.075
v -384 -96 -0.075
v -384 -64 -0.075
v -352 -64 -0.075
v -384 -96 -0.075
v -416 -96 -0.075
v -416 -64 -0.075
v -384 -64 -0.075
v -1760 -96 -0.075
v -1792 -96 -0.075
v -1792 -64 -0.075
v -1760 -64 -0.075
v -1760 -224 -0.175
v -1792 -224 -0.175
v -1792 -192 -0.175
v -1760 -192 -0.175
v -1792 -224 -0.175
v -1824 -224 -0.175
v -1824 -192 -0.175
v -1792 -192 -0.175
v -1824 -224 -0.175
v -1856 -224 -0.175
v -1856 -192 -0.175
v -1824 -192 -0.175
v -1760 -544 -0.425
v -1792 -544 -0.425
v -1792 -512 -0.425
v -1760 -512 -0.425
v -1824 -544 -0.425
v -1856 -544 -0.425
v -1856 -512 -0.425
v -1824 -512 -0.425
v -1792 -576 -0.45
v -1824 -576 -0.45
v -1824 -544 -0.45
v -1792 -544 -0.45
v -1824 -576 -0.45
v -1856 -576 -0.45
v -1856 -544 -0.45
v -1824 -544 -0.45
v -1824 -608 -0.475
v -1856 -608 -0.475
v -1856 -576 -0.475
v -1824 -576 -0.475
v -1760 -928 -0.725
v -1792 -928 -0.725
v -1792 -896 -0.725
v -1760 -896 -0.725
v -1760 -960 -0.75
v -1792 -960 -0.75
v -1792 -928 -0.75
v -1760 -928 -0.75
v -1760 -992 -0.775
v -1792 -992 -0.775
v -1792 -960 -0.775
v -1760 -960 -0.775
v -1184 -1056 -0.825
v -1216 -1056 -0.825
v -1216 -1024 -0.825
v -1184 -1024 -0.825
v -1216 -1056 -0.825
v -1248 -1056 -0.825
v -1248 -1024 -0.825
v -1216 -1024 -0.825
v -1248 -1056 -0.825
v -1280 -1056 -0.825
v -1280 -1024 -0.825
v -1248 -1024 -0.825
v -1152 -1088 -0.85
v -1184 -1088 -0.85
v -1184 -1056 -0.85
v -1152 -1056 -0.85
v -1184 -1088 -0.85
v -1216 -1088 -0.85
v -1216 -1056 -0.85
v -1184 -1056 -0.85
v -1216 -1088 -0.85
v -1248 -1088 -0.85
v -1248 -1056 -0.85
v -1216 -1056 -0.85
v -1248 -1088 -0.85
v -1280 -1088 -0.85
v -1280 -1056 -0.85
v -1248 -1056 -0.85
v -1152 -1120 -0.875
v -1184 -1120 -0.875
v -1184 -1088 -0.875
v -1152 -1088 -0.875
v -1184 -1120 -0.875
v -1216 -1120 -0.875
v -1216 -1088 -0.875
v -1184 -1088 -0.875
v -1216 -1120 -0.875
v -1248 -1120 -0.875
v -1248 -1088 -0.875
v -1216 -1088 -0.875
v -1248 -1120 -0.875
v -1280 -1120 -0.875
v -1280 -1088 -0.875
v -1248 -1088 -0.875
v -1792 -1120 -0.875
v -1824 -1120 -0.875
v -1824 -1088 -0.875
v -1792 -1088 -0.875
v -1760 -1152 -0.9
v -1792 -1152 -0.9
v -1792 -1120 -0.9
v -1760 -1120 -0.9
v -1120 -1280 -1
v -1152 -1280 -1
v -1152 -1248 -1
v -1120 -1248 -1
v -1152 -1280 -1
v -1184 -1280 -1
v -1184 -1248 -1
v -1152 -1248 -1
v -1184 -1280 -1
v -1216 -1280 -1
v -1216 -1248 -1
v -1184 -1248 -1
v -1216 -1280 -1
v -1248 -1280 -1
v -1248 -1248 -1
v -1216 -1248 -1
v -1248 -1280 -1
v -1280 -1280 -1
v -1280 -1248 -1
v -1248 -1248 -1
v -1760 -1280 -1
v -1792 -1280 -1
v -1792 -1248 -1
v -1760 -1248 -1

# Texture cooridinates (Count = 69)
vt 0.5 0.7222222
vt 0.5416667 0.7222222
vt 0.5416667 0.7777778
vt 0.5 0.7777778
vt 0.9166667 0.8888889
vt 0.9583333 0.8888889
vt 0.9583333 0.9444444
vt 0.9166667 0.9444444
vt 1 0.8888889
vt 1 0.9444444
vt 0.5 0.1666667
vt 0.5416667 0.1666667
vt 0.5416667 0.2222222
vt 0.5 0.2222222
vt 0.625 0.9444444
vt 0.6666667 0.9444444
vt 0.6666667 1
vt 0.625 1
vt 0.5 0.6666666
vt 0.5416667 0.6666666
vt 0.25 0.1666667
vt 0.2916667 0.1666667
vt 0.2916667 0.2222222
vt 0.25 0.2222222
vt 1 1
vt 0.9583333 1
vt 0.3333333 0.1666667
vt 0.375 0.1666667
vt 0.375 0.2222222
vt 0.3333333 0.2222222
vt 0.5 0.6111111
vt 0.5416667 0.6111111
vt 0.04166667 0.1666667
vt 0.08333334 0.1666667
vt 0.08333334 0.2222222
vt 0.04166667 0.2222222
vt 0.5833333 0.1666667
vt 0.625 0.1666667
vt 0.625 0.2222222
vt 0.5833333 0.2222222
vt 0.75 0.9444444
vt 0.7916667 0.9444444
vt 0.7916667 1
vt 0.75 1
vt 0.5833333 0.5
vt 0.625 0.5
vt 0.625 0.5555556
vt 0.5833333 0.5555556
vt 0.75 0.6666666
vt 0.7916667 0.6666666
vt 0.7916667 0.7222222
vt 0.75 0.7222222
vt 0.9166667 0.8333333
vt 0.9583333 0.8333333
vt 0.9166667 0.7777778
vt 0.9583333 0.7777778
vt 0.25 0.8333333
vt 0.2916667 0.8333333
vt 0.2916667 0.8888889
vt 0.25 0.8888889
vt 1 0.8333333
vt 0.7083333 0.7777778
vt 0.75 0.7777778
vt 0.75 0.8333333
vt 0.7083333 0.8333333
vt 0.9583333 0.5555556
vt 1 0.5555556
vt 1 0.6111111
vt 0.9583333 0.6111111

# Normal
vn 0 0 -1

# Mesh description
g gameMap_mesh_0003

# Faces
f 1/1/1 2/2/1 3/3/1 4/4/1
f 5/5/1 6/6/1 7/7/1 8/8/1
f 9/5/1 10/6/1 11/7/1 12/8/1
f 13/5/1 14/6/1 15/7/1 16/8/1
f 17/6/1 18/9/1 19/10/1 20/7/1
f 21/5/1 22/6/1 23/7/1 24/8/1
f 25/5/1 26/6/1 27/7/1 28/8/1
f 29/5/1 30/6/1 31/7/1 32/8/1
f 33/5/1 34/6/1 35/7/1 36/8/1
f 37/5/1 38/6/1 39/7/1 40/8/1
f 41/5/1 42/6/1 43/7/1 44/8/1
f 45/5/1 46/6/1 47/7/1 48/8/1
f 49/11/1 50/12/1 51/13/1 52/14/1
f 53/15/1 54/16/1 55/17/1 56/18/1
f 57/19/1 58/20/1 59/2/1 60/1/1
f 61/21/1 62/22/1 63/23/1 64/24/1
f 65/21/1 66/22/1 67/23/1 68/24/1
f 69/5/1 70/6/1 71/7/1 72/8/1
f 73/7/1 74/10/1 75/25/1 76/26/1
f 77/7/1 78/10/1 79/25/1 80/26/1
f 81/7/1 82/10/1 83/25/1 84/26/1
f 85/5/1 86/6/1 87/7/1 88/8/1
f 89/27/1 90/28/1 91/29/1 92/30/1
f 93/27/1 94/28/1 95/29/1 96/30/1
f 97/27/1 98/28/1 99/29/1 100/30/1
f 101/27/1 102/28/1 103/29/1 104/30/1
f 105/27/1 106/28/1 107/29/1 108/30/1
f 109/11/1 110/12/1 111/13/1 112/14/1
f 113/15/1 114/16/1 115/17/1 116/18/1
f 117/5/1 118/6/1 119/7/1 120/8/1
f 121/31/1 122/32/1 123/20/1 124/19/1
f 125/33/1 126/34/1 127/35/1 128/36/1
f 129/33/1 130/34/1 131/35/1 132/36/1
f 133/33/1 134/34/1 135/35/1 136/36/1
f 137/37/1 138/38/1 139/39/1 140/40/1
f 141/41/1 142/42/1 143/43/1 144/44/1
f 145/19/1 146/20/1 147/2/1 148/1/1
f 149/45/1 150/46/1 151/47/1 152/48/1
f 153/27/1 154/28/1 155/29/1 156/30/1
f 157/49/1 158/50/1 159/51/1 160/52/1
f 161/53/1 162/54/1 163/6/1 164/5/1
f 165/49/1 166/50/1 167/51/1 168/52/1
f 169/55/1 170/56/1 171/54/1 172/53/1
f 173/19/1 174/20/1 175/2/1 176/1/1
f 177/57/1 178/58/1 179/59/1 180/60/1
f 181/57/1 182/58/1 183/59/1 184/60/1
f 185/31/1 186/32/1 187/20/1 188/19/1
f 189/53/1 190/54/1 191/6/1 192/5/1
f 193/53/1 194/54/1 195/6/1 196/5/1
f 197/53/1 198/54/1 199/6/1 200/5/1
f 201/53/1 202/54/1 203/6/1 204/5/1
f 205/53/1 206/54/1 207/6/1 208/5/1
f 209/53/1 210/54/1 211/6/1 212/5/1
f 213/6/1 214/9/1 215/10/1 216/7/1
f 217/53/1 218/54/1 219/6/1 220/5/1
f 221/53/1 222/54/1 223/6/1 224/5/1
f 225/53/1 226/54/1 227/6/1 228/5/1
f 229/54/1 230/61/1 231/9/1 232/6/1
f 233/57/1 234/58/1 235/59/1 236/60/1
f 237/62/1 238/63/1 239/64/1 240/65/1
f 241/53/1 242/54/1 243/6/1 244/5/1
f 245/53/1 246/54/1 247/6/1 248/5/1
f 249/53/1 250/54/1 251/6/1 252/5/1
f 253/53/1 254/54/1 255/6/1 256/5/1
f 257/66/1 258/67/1 259/68/1 260/69/1
f 261/19/1 262/20/1 263/2/1 264/1/1

